<svg width="51" height="50" viewBox="0 0 51 50" fill="none" xmlns="http://www.w3.org/2000/svg">
<g id="account_circle">
<mask id="mask0_518_355" style="mask-type:alpha" maskUnits="userSpaceOnUse" x="0" y="0" width="51" height="50">
<rect id="Bounding box" x="0.333374" width="50" height="50" fill="#D9D9D9"/>
</mask>
<g mask="url(#mask0_518_355)">
<path id="account_circle_2" d="M12.5716 36.5545C14.549 35.1603 16.572 34.0732 18.6407 33.2933C20.7093 32.5134 22.9402 32.1234 25.3334 32.1234C27.7265 32.1234 29.961 32.5134 32.0367 33.2933C34.1125 34.0732 36.1391 35.1603 38.1164 36.5545C39.5579 34.9101 40.6501 33.1255 41.3931 31.2008C42.136 29.276 42.5075 27.2091 42.5075 25C42.5075 20.1843 40.8491 16.118 37.5322 12.8011C34.2153 9.48426 30.1491 7.82582 25.3334 7.82582C20.5177 7.82582 16.4514 9.48426 13.1345 12.8011C9.81763 16.118 8.1592 20.1843 8.1592 25C8.1592 27.2091 8.53425 29.276 9.28435 31.2008C10.0345 33.1255 11.1302 34.9101 12.5716 36.5545ZM25.326 26.3087C23.4435 26.3087 21.8585 25.6626 20.5711 24.3703C19.2837 23.078 18.64 21.4906 18.64 19.6081C18.64 17.7255 19.2862 16.1405 20.5784 14.8531C21.8707 13.5657 23.4581 12.922 25.3407 12.922C27.2233 12.922 28.8082 13.5682 30.0956 14.8605C31.383 16.1527 32.0267 17.7401 32.0267 19.6227C32.0267 21.5053 31.3806 23.0902 30.0883 24.3776C28.796 25.665 27.2086 26.3087 25.326 26.3087ZM25.3496 44.7916C22.6046 44.7916 20.0295 44.2748 17.6242 43.2411C15.2189 42.2074 13.1207 40.7941 11.3295 39.001C9.53833 37.2079 8.12591 35.1124 7.09227 32.7144C6.05859 30.3164 5.54175 27.7441 5.54175 24.9974C5.54175 22.2507 6.05859 19.6793 7.09227 17.283C8.12591 14.8867 9.53928 12.7921 11.3324 10.999C13.1254 9.20591 15.2209 7.79254 17.6189 6.7589C20.0169 5.72522 22.5892 5.20837 25.3359 5.20837C28.0826 5.20837 30.6541 5.72522 33.0503 6.7589C35.4466 7.79254 37.5413 9.20591 39.3344 10.999C41.1274 12.7921 42.5408 14.8871 43.5745 17.2841C44.6081 19.6811 45.125 22.2477 45.125 24.9837C45.125 27.7287 44.6081 30.3038 43.5745 32.7092C42.5408 35.1144 41.1274 37.2127 39.3344 39.0038C37.5413 40.795 35.4463 42.2074 33.0493 43.2411C30.6522 44.2748 28.0857 44.7916 25.3496 44.7916ZM25.3334 42.1742C27.2511 42.1742 29.1286 41.8681 30.9657 41.256C32.8029 40.6439 34.5019 39.6982 36.0626 38.4188C34.5019 37.2542 32.8171 36.3501 31.0085 35.7064C29.1998 35.0627 27.3081 34.7409 25.3334 34.7409C23.3586 34.7409 21.4636 35.0594 19.6483 35.6964C17.8329 36.3334 16.156 37.2409 14.6175 38.4188C16.1693 39.6982 17.8638 40.6439 19.701 41.256C21.5382 41.8681 23.4156 42.1742 25.3334 42.1742ZM25.3352 23.6913C26.511 23.6913 27.4839 23.3056 28.254 22.5342C29.0242 21.7629 29.4093 20.7893 29.4093 19.6135C29.4093 18.4378 29.0236 17.4648 28.2522 16.6947C27.4808 15.9245 26.5072 15.5395 25.3315 15.5395C24.1557 15.5395 23.1828 15.9252 22.4127 16.6966C21.6425 17.4679 21.2575 18.4415 21.2575 19.6172C21.2575 20.793 21.6432 21.7659 22.4145 22.5361C23.1859 23.3062 24.1595 23.6913 25.3352 23.6913Z" fill="#1C1B1F"/>
</g>
</g>
</svg>
