<svg width="41" height="43" viewBox="0 0 41 43" fill="none" xmlns="http://www.w3.org/2000/svg">
<path fill-rule="evenodd" clip-rule="evenodd" d="M3.94901 5.8502V4.67773C3.94901 2.13571 6.02759 0.0571289 8.56961 0.0571289H40.1552C40.3456 0.0571289 40.5 0.211522 40.5 0.40195V41.7804C40.5 41.9709 40.3456 42.1252 40.1552 42.1252C29.6267 42.1252 19.0981 42.1252 8.56961 42.1252C6.02759 42.1252 3.94901 40.0467 3.94901 37.5047V36.3323H2.22491C0.705542 36.3323 -0.0831493 34.4803 1.007 33.3903C1.31932 33.0779 1.75043 32.8841 2.22491 32.8841H3.94901V29.5738H2.22491C0.705542 29.5738 -0.0831493 27.7218 1.007 26.6318C1.31932 26.3194 1.75043 26.1256 2.22491 26.1256H3.94901V22.8153H2.22491C0.705542 22.8153 -0.0831493 20.9633 1.007 19.8733C1.31932 19.561 1.75043 19.3671 2.22491 19.3671H3.94901V16.0568H2.22491C0.705542 16.0568 -0.0831493 14.2049 1.007 13.1148C1.31932 12.8025 1.75043 12.6086 2.22491 12.6086H3.94901V9.29832H2.22491C0.705542 9.29832 -0.0831493 7.44638 1.007 6.35631C1.31932 6.04399 1.75043 5.85012 2.22491 5.85012L3.94901 5.8502ZM22.892 36.8423H36.0658C36.5197 36.8423 36.5197 36.1526 36.0658 36.1526H22.892C22.438 36.1526 22.438 36.8423 22.892 36.8423ZM22.892 35.5031H27.8127C28.2666 35.5031 28.2666 34.8134 27.8127 34.8134H22.892C22.438 34.8134 22.438 35.5031 22.892 35.5031ZM18.1661 35.0324L17.3066 35.8918L16.9987 35.584C16.6778 35.2631 16.1901 35.7506 16.5112 36.0716L17.0628 36.6232C17.1975 36.7579 17.4157 36.7579 17.5504 36.6232L18.6536 35.52C18.9747 35.199 18.4871 34.7114 18.1661 35.0324ZM15.7399 33.6405C15.5495 33.6405 15.3951 33.7949 15.3951 33.9853V37.6704C15.3951 37.8609 15.5495 38.0152 15.7399 38.0152H19.425C19.6154 38.0152 19.7698 37.8609 19.7698 37.6704V33.9853C19.7698 33.7949 19.6154 33.6405 19.425 33.6405H15.7399ZM19.0802 34.3301H16.0847V37.3256H19.0802V34.3301ZM22.892 29.474H36.0658C36.5197 29.474 36.5197 28.7843 36.0658 28.7843H22.892C22.438 28.7843 22.438 29.474 22.892 29.474ZM22.892 28.1348H27.8127C28.2666 28.1348 28.2666 27.4451 27.8127 27.4451H22.892C22.438 27.4451 22.438 28.1348 22.892 28.1348ZM18.1661 27.6641L17.3066 28.5235L16.9987 28.2157C16.6778 27.8948 16.1901 28.3823 16.5112 28.7033L17.0628 29.2549C17.1975 29.3896 17.4157 29.3896 17.5504 29.2549L18.6536 28.1517C18.9747 27.8307 18.4871 27.3431 18.1661 27.6641ZM15.7399 26.2721C15.5495 26.2721 15.3951 26.4265 15.3951 26.6169V30.302C15.3951 30.4925 15.5495 30.6469 15.7399 30.6469H19.425C19.6154 30.6469 19.7698 30.4925 19.7698 30.302V26.6169C19.7698 26.4265 19.6154 26.2721 19.425 26.2721H15.7399ZM19.0802 26.9618H16.0847V29.9572H19.0802V26.9618ZM22.892 22.1056H36.0658C36.5197 22.1056 36.5197 21.4159 36.0658 21.4159H22.892C22.438 21.416 22.438 22.1056 22.892 22.1056ZM22.892 20.7665H27.8127C28.2666 20.7665 28.2666 20.0768 27.8127 20.0768H22.892C22.438 20.0768 22.438 20.7665 22.892 20.7665ZM18.1661 20.2958L17.3066 21.1552L16.9987 20.8474C16.6778 20.5265 16.1901 21.014 16.5112 21.335L17.0628 21.8866C17.1975 22.0213 17.4157 22.0213 17.5504 21.8866L18.6536 20.7833C18.9747 20.4624 18.4871 19.9748 18.1661 20.2958ZM15.7399 18.9038C15.5495 18.9038 15.3951 19.0582 15.3951 19.2486V22.9337C15.3951 23.1242 15.5495 23.2786 15.7399 23.2786H19.425C19.6154 23.2786 19.7698 23.1242 19.7698 22.9337V19.2486C19.7698 19.0582 19.6154 18.9038 19.425 18.9038H15.7399ZM19.0802 19.5935H16.0847V22.5889H19.0802V19.5935ZM22.892 14.7373H36.0658C36.5197 14.7373 36.5197 14.0476 36.0658 14.0476H22.892C22.438 14.0476 22.438 14.7373 22.892 14.7373ZM22.892 13.3982H27.8127C28.2666 13.3982 28.2666 12.7085 27.8127 12.7085H22.892C22.438 12.7085 22.438 13.3982 22.892 13.3982ZM18.1661 12.9275L17.3066 13.7869L16.9987 13.4791C16.6778 13.1582 16.1901 13.6457 16.5112 13.9667L17.0628 14.5183C17.1975 14.653 17.4157 14.653 17.5504 14.5183L18.6536 13.415C18.9747 13.0941 18.4871 12.6064 18.1661 12.9275ZM15.7399 11.5355C15.5495 11.5355 15.3951 11.6899 15.3951 11.8803V15.5654C15.3951 15.7559 15.5495 15.9103 15.7399 15.9103H19.425C19.6154 15.9103 19.7698 15.7559 19.7698 15.5654V11.8803C19.7698 11.6899 19.6154 11.5355 19.425 11.5355H15.7399ZM19.0802 12.2252H16.0847V15.2206H19.0802V12.2252ZM22.892 7.36896H36.0658C36.5197 7.36896 36.5197 6.67932 36.0658 6.67932H22.892C22.438 6.67932 22.438 7.36896 22.892 7.36896ZM22.892 6.02977H27.8127C28.2666 6.02977 28.2666 5.34013 27.8127 5.34013H22.892C22.438 5.34013 22.438 6.02977 22.892 6.02977ZM18.1661 5.55917L17.3066 6.41864L16.9987 6.1108C16.6778 5.78986 16.1901 6.27743 16.5112 6.59838L17.0628 7.15C17.1975 7.28466 17.4157 7.28466 17.5504 7.15L18.6536 6.04675C18.9747 5.72572 18.4871 5.23815 18.1661 5.55917ZM15.7399 4.16722C15.5495 4.16722 15.3951 4.32161 15.3951 4.51204V8.19714C15.3951 8.38756 15.5495 8.54196 15.7399 8.54196H19.425C19.6154 8.54196 19.7698 8.38756 19.7698 8.19714V4.51204C19.7698 4.32161 19.6154 4.16722 19.425 4.16722H15.7399ZM19.0802 4.85686H16.0847V7.85232H19.0802V4.85686ZM4.63865 36.3323V37.5047C4.63865 39.666 6.40836 41.4356 8.56961 41.4356H11.1213V0.74677H8.56961C6.40827 0.74677 4.63865 2.51639 4.63865 4.67773V5.85012H6.36276C7.88212 5.85012 8.67081 7.70206 7.58066 8.79213C7.26834 9.10445 6.83723 9.29832 6.36276 9.29832H4.63865V12.6086H6.36276C7.88212 12.6086 8.67081 14.4605 7.58066 15.5506C7.26834 15.8629 6.83723 16.0568 6.36276 16.0568H4.63865V19.3671H6.36276C7.88212 19.3671 8.67081 21.219 7.58066 22.3091C7.26834 22.6214 6.83723 22.8153 6.36276 22.8153H4.63865V26.1256H6.36276C7.88212 26.1256 8.67081 27.9775 7.58066 29.0676C7.26834 29.3799 6.83723 29.5738 6.36276 29.5738H4.63865V32.8841H6.36276C7.88212 32.8841 8.67081 34.736 7.58066 35.8261C7.26834 36.1384 6.83723 36.3323 6.36276 36.3323H4.63865ZM6.36276 33.5737C4.98347 33.5737 3.60419 33.5737 2.22482 33.5737C1.31786 33.5737 0.837522 34.6815 1.49449 35.3385C1.68216 35.5261 1.94069 35.6426 2.22482 35.6426C3.6041 35.6426 4.98339 35.6426 6.36276 35.6426C7.26972 35.6426 7.75006 34.5348 7.09309 33.8778C6.90542 33.6902 6.6468 33.5737 6.36276 33.5737ZM6.36276 26.8152C4.98347 26.8152 3.60419 26.8152 2.22482 26.8152C1.31786 26.8152 0.837522 27.923 1.49449 28.58C1.68216 28.7676 1.94069 28.8841 2.22482 28.8841H6.36276C7.26972 28.8841 7.75006 27.7763 7.09309 27.1193C6.90542 26.9317 6.6468 26.8152 6.36276 26.8152ZM6.36276 20.0567H2.22482C1.31786 20.0567 0.837522 21.1645 1.49449 21.8215C1.68216 22.0092 1.94069 22.1257 2.22482 22.1257C3.6041 22.1257 4.98339 22.1257 6.36276 22.1257C7.26972 22.1257 7.75006 21.0178 7.09309 20.3609C6.90542 20.1733 6.6468 20.0567 6.36276 20.0567ZM6.36276 13.2982C4.98347 13.2982 3.60419 13.2982 2.22482 13.2982C1.31786 13.2982 0.837522 14.4061 1.49449 15.063C1.68216 15.2506 1.94069 15.3672 2.22482 15.3672H6.36276C7.26972 15.3672 7.75006 14.2593 7.09309 13.6024C6.90542 13.4148 6.6468 13.2982 6.36276 13.2982ZM6.36276 6.53984C4.98347 6.53984 3.60419 6.53984 2.22482 6.53984C1.31786 6.53984 0.837522 7.64767 1.49449 8.30464C1.68216 8.49222 1.94069 8.60877 2.22482 8.60877H6.36276C7.26972 8.60877 7.75006 7.50094 7.09309 6.84397C6.90542 6.65631 6.6468 6.53984 6.36276 6.53984ZM11.8109 41.4356H39.8104V0.74677H11.8109V41.4356Z" fill="black"/>
</svg>
