<?xml version="1.0" standalone="no"?>
<!DOCTYPE svg PUBLIC "-//W3C//DTD SVG 20010904//EN"
 "http://www.w3.org/TR/2001/REC-SVG-20010904/DTD/svg10.dtd">
<svg version="1.0" xmlns="http://www.w3.org/2000/svg"
 width="512.000000pt" height="512.000000pt" viewBox="0 0 512.000000 512.000000"
 preserveAspectRatio="xMidYMid meet">

<g transform="translate(0.000000,512.000000) scale(0.100000,-0.100000)"
fill="#000000" stroke="none">
<path d="M2388 4785 c-500 -95 -852 -554 -797 -1042 25 -222 116 -412 278
-573 176 -176 398 -274 646 -287 434 -22 836 255 973 670 172 519 -145 1074
-696 1218 -102 27 -299 34 -404 14z m307 -320 c38 -8 101 -30 140 -49 236
-112 378 -328 378 -576 0 -108 -15 -174 -65 -279 -57 -119 -169 -232 -289
-289 -196 -94 -402 -94 -598 0 -120 57 -232 170 -289 289 -50 106 -66 172 -65
279 1 246 138 458 370 571 136 67 274 84 418 54z"/>
<path d="M1935 2553 c-159 -15 -454 -92 -561 -146 -367 -185 -678 -545 -809
-938 -73 -217 -77 -256 -82 -727 l-5 -422 2081 0 2081 0 0 368 c0 388 -9 501
-49 660 -74 289 -206 518 -426 737 -237 238 -482 371 -820 446 -97 22 -119 22
-735 24 -349 1 -653 1 -675 -2z m1275 -314 l65 -14 3 -257 2 -256 -47 -16
c-164 -54 -316 -227 -363 -411 -51 -198 -2 -305 140 -305 102 0 146 49 161
177 14 127 81 217 183 244 58 16 163 6 212 -19 82 -42 144 -143 144 -236 0
-23 9 -60 20 -83 25 -57 69 -83 140 -83 138 0 190 107 145 298 -43 182 -201
362 -366 417 l-49 17 0 199 0 199 48 -24 c132 -68 304 -219 409 -361 69 -93
146 -241 182 -353 50 -152 61 -241 61 -499 l0 -233 -1751 0 -1751 0 5 248 c5
261 17 345 67 492 32 92 111 243 170 325 62 86 192 220 274 281 l61 46 3 -237
2 -238 -50 -53 c-71 -75 -93 -130 -94 -230 0 -68 5 -90 27 -136 106 -216 357
-239 487 -45 87 129 73 307 -34 425 l-36 40 2 318 3 319 100 22 c170 38 233
41 805 38 424 -2 570 -6 620 -16z"/>
</g>
</svg>
