<svg width="40" height="50" viewBox="0 0 40 50" fill="none" xmlns="http://www.w3.org/2000/svg">
<g id="Group">
<path id="Vector" d="M30.6635 21.775C30.6635 15.8684 25.8761 11.1431 20.0316 11.1431C14.125 11.1431 9.39972 15.8684 9.39972 21.775C9.39972 30.4173 7.16142 35.64 5.234 38.5H34.7671C31.5962 33.7126 30.6635 27.3707 30.6635 21.775ZM15.8037 4.6147C15.8037 -0.732349 24.1974 -0.981048 24.1974 4.6147V8.53172C29.9796 10.3348 33.8966 15.6818 33.8966 21.775C33.8966 34.8317 39.0572 38.6244 39.3059 38.8109C40.5494 39.557 40.052 41.7331 38.3732 41.7331H1.7522C0.135653 41.8575 -0.672621 39.7435 0.695227 38.8109C0.757402 38.7487 6.16662 35.2048 6.16662 21.775C6.16662 15.6818 10.0836 10.3348 15.8037 8.53172V4.6147ZM20.9643 7.90997V4.6147C20.9643 3.43337 19.099 3.43337 19.099 4.6147V7.90997C19.7208 7.84779 20.3425 7.84779 20.9643 7.90997ZM23.2647 44.8419C24.5704 43.1632 27.1817 45.0906 25.8761 46.8315C23.2026 50.3755 16.8607 50.3755 14.125 46.8315C12.8815 45.0906 15.4929 43.1632 16.7364 44.8419C18.1042 46.7071 21.8969 46.7071 23.2647 44.8419Z" fill="black"/>
</g>
</svg>
