<?xml version="1.0" standalone="no"?>
<!DOCTYPE svg PUBLIC "-//W3C//DTD SVG 20010904//EN"
 "http://www.w3.org/TR/2001/REC-SVG-20010904/DTD/svg10.dtd">
<svg version="1.0" xmlns="http://www.w3.org/2000/svg"
 width="512.000000pt" height="512.000000pt" viewBox="0 0 512.000000 512.000000"
 preserveAspectRatio="xMidYMid meet">

<g transform="translate(0.000000,512.000000) scale(0.100000,-0.100000)"
fill="#000000" stroke="none">
<path d="M985 5061 c-51 -23 -111 -89 -124 -138 -7 -25 -11 -314 -11 -870 l0
-833 -258 0 c-304 0 -332 -5 -413 -77 -69 -63 -99 -127 -99 -214 0 -96 414
-2657 438 -2712 27 -61 77 -114 136 -145 l51 -27 1770 0 1770 0 85 23 c362 96
630 387 701 759 7 40 10 114 6 200 -6 157 -25 238 -87 371 l-39 82 65 401 c35
220 64 430 64 467 -1 113 -58 203 -165 260 l-50 27 -277 3 -278 3 0 937 c-1
1009 1 975 -54 1046 -42 56 -103 79 -223 84 l-103 5 0 97 c0 141 -31 203 -124
246 l-51 24 -1345 0 c-1280 0 -1347 -1 -1385 -19z m2732 -153 c21 -19 23 -30
23 -110 l0 -88 -1172 -2 -1173 -3 -40 -22 c-22 -11 -52 -34 -67 -50 -60 -62
-58 -42 -58 -758 l0 -655 -115 0 -115 0 0 830 0 831 25 24 24 25 1322 0 1323
0 23 -22z m379 -381 l24 -28 0 -930 0 -929 -1111 0 -1110 0 -23 53 c-93 209
-196 407 -231 441 -50 51 -114 78 -197 84 l-68 5 0 638 c0 350 3 645 6 654 18
45 -8 45 1377 42 l1309 -2 24 -28z m-2598 -1471 c48 -25 68 -58 177 -291 59
-126 118 -240 132 -252 l24 -23 1472 0 c1381 0 1474 -1 1507 -18 49 -24 80
-75 80 -131 0 -40 -98 -681 -106 -690 -2 -2 -29 19 -61 46 -210 180 -469 263
-727 233 -395 -46 -707 -311 -818 -696 -31 -108 -33 -371 -4 -479 58 -212 192
-412 353 -528 l45 -32 -1408 -3 c-1594 -2 -1458 -10 -1501 79 -16 34 -67 330
-227 1325 -113 705 -206 1301 -206 1326 0 55 31 106 80 130 32 17 82 18 598
18 464 0 568 -2 590 -14z m2779 -1292 c287 -64 520 -297 594 -594 18 -71 21
-104 17 -215 -6 -150 -30 -240 -100 -362 l-42 -73 -34 61 c-65 115 -232 269
-292 269 -12 0 -45 -13 -71 -30 -156 -96 -352 -96 -508 0 -26 17 -59 30 -71
30 -60 0 -227 -154 -292 -268 l-34 -61 -32 52 c-136 225 -151 515 -37 754 44
95 85 153 155 223 196 196 473 276 747 214z m-448 -1108 c153 -78 379 -78 533
0 28 14 57 22 68 19 35 -11 129 -124 167 -201 l37 -77 -34 -29 c-61 -52 -162
-106 -260 -140 -91 -31 -102 -33 -245 -33 -143 0 -154 2 -245 33 -98 34 -199
88 -260 140 l-34 29 38 79 c39 77 147 204 174 204 7 0 34 -11 61 -24z"/>
<path d="M1700 4230 c-25 -25 -26 -71 -1 -101 l19 -24 1022 -3 1021 -2 30 29
c34 35 37 59 8 95 l-20 26 -1030 0 c-1016 0 -1029 0 -1049 -20z"/>
<path d="M1725 3709 c-48 -27 -60 -84 -25 -119 20 -20 33 -20 1049 -20 l1030
0 20 26 c27 35 26 57 -3 91 l-24 28 -1014 2 c-723 2 -1019 -1 -1033 -8z"/>
<path d="M2173 3168 c-48 -23 -51 -103 -4 -127 13 -8 206 -11 585 -11 553 0
566 0 586 20 30 30 27 83 -6 109 -26 21 -35 21 -583 20 -368 0 -563 -4 -578
-11z"/>
<path d="M1627 2068 c-32 -25 -37 -68 -37 -299 l0 -229 -239 0 c-132 0 -247
-3 -256 -6 -37 -15 -45 -56 -45 -237 0 -180 8 -230 40 -247 11 -6 121 -10 259
-10 l241 0 0 -229 c0 -235 6 -283 40 -301 29 -16 411 -12 432 4 33 25 38 65
38 297 l0 229 243 0 c261 1 267 2 287 54 14 37 13 354 -1 395 -6 17 -19 36
-29 41 -11 6 -121 10 -259 10 l-241 0 0 229 c0 235 -6 283 -40 301 -29 15
-412 13 -433 -2z m313 -367 c0 -135 4 -241 10 -257 20 -52 26 -53 288 -54
l242 0 0 -100 0 -100 -241 0 c-138 0 -248 -4 -259 -10 -34 -18 -40 -66 -40
-302 l0 -229 -97 3 -98 3 -5 253 c-5 240 -6 254 -25 265 -13 8 -103 14 -265
17 l-245 5 -3 98 -3 97 244 0 c232 0 246 1 271 21 l26 20 0 250 0 249 100 0
100 0 0 -229z"/>
<path d="M3969 1537 c-98 -41 -158 -99 -202 -195 -16 -36 -21 -67 -22 -132 0
-77 3 -92 33 -152 132 -268 502 -268 634 0 30 60 33 75 33 152 -1 73 -5 94
-30 144 -60 126 -169 197 -310 203 -67 3 -89 0 -136 -20z m176 -138 c88 -24
145 -98 145 -188 0 -87 -37 -146 -115 -182 -75 -35 -168 -16 -227 47 -74 80
-62 223 24 287 60 44 106 54 173 36z"/>
</g>
</svg>
