<svg width="40" height="46" viewBox="0 0 40 46" fill="none" xmlns="http://www.w3.org/2000/svg">
<g id="maintenance">
<path id="Vector" d="M39.9836 22.997C39.9836 16.122 36.5214 9.82267 30.7072 6.13024C30.3207 5.88353 29.8191 5.99866 29.5724 6.38517C29.3257 6.77168 29.4408 7.27333 29.8273 7.52004C35.1563 10.9082 38.3388 16.6977 38.3388 23.0052C38.3388 32.4049 31.2253 40.1762 22.1053 41.2289L22.7879 40.5463C23.1086 40.2256 23.1086 39.7075 22.7879 39.3868C22.4671 39.0661 21.949 39.0661 21.6283 39.3868L19.4161 41.5989C19.3421 41.673 19.2763 41.7634 19.2352 41.8703C19.1941 41.969 19.1694 42.0759 19.1694 42.1828C19.1694 42.2897 19.1941 42.3966 19.2352 42.4953C19.2763 42.594 19.3339 42.6845 19.4161 42.7585L21.6283 44.9707C21.7928 45.1351 21.9984 45.2091 22.2122 45.2091C22.426 45.2091 22.6316 45.1269 22.7961 44.9707C23.1168 44.6499 23.1168 44.1318 22.7961 43.8111L21.8997 42.9147C32.0395 41.9608 40 33.3999 40 23.0134L39.9836 22.997Z" fill="black"/>
<path id="Vector_2" d="M10.1562 38.4822C4.8273 35.094 1.64473 29.3046 1.64473 22.997C1.64473 13.5973 8.75821 5.82596 17.8783 4.77333L17.1957 5.45589C16.875 5.77662 16.875 6.29471 17.1957 6.61543C17.3602 6.77991 17.5658 6.85392 17.7796 6.85392C17.9934 6.85392 18.199 6.77168 18.3635 6.61543L20.5756 4.40326C20.6496 4.32925 20.7154 4.23879 20.7566 4.13188C20.7977 4.0332 20.8223 3.92629 20.8223 3.81938C20.8223 3.71248 20.7977 3.60557 20.7566 3.50688C20.7154 3.4082 20.6579 3.31774 20.5756 3.24373L18.3635 1.03156C18.0427 0.710835 17.5246 0.710835 17.2039 1.03156C16.8832 1.35228 16.8832 1.87037 17.2039 2.1911L18.1003 3.08748C7.96052 4.04142 0 12.6023 0 22.9888C0 29.8638 3.47039 36.1631 9.2763 39.8555C9.41611 39.946 9.56413 39.9871 9.72038 39.9871C9.99176 39.9871 10.2549 39.8555 10.4112 39.6088C10.6579 39.2223 10.5428 38.7207 10.1562 38.4739V38.4822Z" fill="black"/>
<path id="Vector_3" d="M19.1529 29.1401L17.9687 27.9558L19.6299 26.2947L22.1957 28.8604C21.6036 30.8012 22.097 32.9147 23.5608 34.3703C24.6217 35.4312 26.0197 35.9904 27.4588 35.9904C28.1825 35.9904 28.9062 35.8506 29.6052 35.5545C29.6546 35.5298 29.6957 35.497 29.7368 35.4641C29.7779 35.4312 29.8273 35.4147 29.8684 35.3736C29.9342 35.2996 29.9917 35.2173 30.0329 35.1351C30.0822 35.0282 30.1069 34.9213 30.1069 34.8144C30.1069 34.8144 30.1069 34.8144 30.1069 34.8062C30.1069 34.6993 30.0822 34.5923 30.0411 34.4937C30.0246 34.4525 29.9917 34.4197 29.9671 34.3868C29.9342 34.3374 29.9095 34.2799 29.8684 34.2305L27.7878 32.1499L28.4539 31.4838L29.12 30.8177L31.1924 32.89C31.2253 32.9312 31.2664 32.9476 31.3075 32.9723C31.3569 33.0052 31.398 33.0463 31.4555 33.071C31.5378 33.1039 31.6282 33.1203 31.7187 33.1285C31.7352 33.1285 31.7516 33.1368 31.768 33.1368C31.8667 33.1368 31.9572 33.1121 32.0477 33.0792C32.0723 33.071 32.097 33.0545 32.1217 33.0463C32.1875 33.0134 32.2532 32.9723 32.3108 32.9229C32.3273 32.9147 32.3437 32.9065 32.3519 32.8983C32.3519 32.8983 32.3602 32.8818 32.3684 32.8736C32.4342 32.8078 32.4917 32.7256 32.5329 32.6351C32.5329 32.6351 32.5329 32.6269 32.5329 32.6187C33.4046 30.5381 32.9358 28.1779 31.3486 26.5825C29.8848 25.1187 27.7796 24.6253 25.8388 25.2174L23.273 22.6516L27.4013 18.5233L29.8684 17.7009C30.0575 17.6351 30.2138 17.5118 30.3125 17.3473L32.9687 12.9312C33.1661 12.6105 33.1085 12.1911 32.8454 11.9279L31.9654 11.0397L31.0773 10.1598C30.8059 9.89666 30.3947 9.84732 30.074 10.0365L25.6496 12.6927C25.4852 12.7914 25.3536 12.9476 25.296 13.1368L24.4654 15.6039L20.3371 19.7322L17.7714 17.1664C18.3635 15.2256 17.87 13.1121 16.4062 11.6565C14.8108 10.0611 12.4506 9.60061 10.37 10.4723C10.37 10.4723 10.37 10.4723 10.3618 10.4723C10.3043 10.497 10.2714 10.5381 10.222 10.571C10.1809 10.5957 10.1398 10.6121 10.0987 10.6532C10.0247 10.7272 9.96709 10.8177 9.92597 10.9082C9.91775 10.9328 9.90952 10.9657 9.9013 10.9904C9.87663 11.0809 9.86018 11.1713 9.86018 11.27C9.86018 11.3605 9.87663 11.4592 9.91775 11.5414C9.94242 11.5907 9.97531 11.6319 10.0082 11.673C10.0411 11.7141 10.0575 11.7634 10.0987 11.8045L12.1793 13.8851L11.5131 14.5513L10.847 15.2174L8.77466 13.145C8.74176 13.1039 8.69242 13.0874 8.6513 13.0545C8.60196 13.0217 8.56906 12.9805 8.5115 12.9641C8.41282 12.923 8.31413 12.9065 8.21545 12.9065C8.1661 12.9065 8.12499 12.923 8.07564 12.9312C8.00163 12.9394 7.93584 12.9559 7.87005 12.9805C7.77959 13.0217 7.69735 13.071 7.62334 13.145C7.58222 13.1861 7.56578 13.2355 7.53288 13.2766C7.49999 13.3177 7.46709 13.3588 7.44242 13.4082C7.44242 13.4082 7.44242 13.4082 7.44242 13.4164C6.57071 15.497 7.03946 17.8654 8.62663 19.4526C9.68748 20.5134 11.0855 21.0726 12.5247 21.0726C13.0674 21.0726 13.6184 20.9904 14.1529 20.8259L16.7023 23.3753L15.0411 25.0364L13.8569 23.8522C13.5362 23.5315 13.0181 23.5315 12.6973 23.8522C12.3766 24.173 12.3766 24.691 12.6973 25.0118L13.0016 25.316L7.87005 30.4476C7.24505 31.0726 6.89966 31.9114 6.89966 32.7996C6.89966 33.6877 7.24505 34.5183 7.87005 35.1516C8.49505 35.7766 9.33387 36.122 10.222 36.122C11.1102 36.122 11.9408 35.7766 12.574 35.1516L17.7056 30.02L18.0098 30.3243C18.1743 30.4887 18.3799 30.5627 18.5937 30.5627C18.8075 30.5627 19.0131 30.4805 19.1776 30.3243C19.4983 30.0035 19.4983 29.4854 19.1776 29.1647L19.1529 29.1401ZM25.773 16.599C25.8635 16.5085 25.9292 16.4016 25.9704 16.2782L26.7598 13.9098L30.37 11.7388L30.7977 12.1664L31.2253 12.6022L29.0542 16.2124L26.6858 17.0019C26.5625 17.043 26.4556 17.1088 26.3651 17.1993L22.097 21.4674L21.4885 20.8588L25.7565 16.5907L25.773 16.599ZM9.77794 18.2684C8.98025 17.4707 8.59373 16.4016 8.65952 15.3243L10.2796 16.9443C10.4358 17.1006 10.6414 17.1828 10.8635 17.1828C11.0855 17.1828 11.2911 17.0924 11.4474 16.9443L12.6891 15.7026L13.9309 14.4608C14.2516 14.1401 14.2516 13.622 13.9309 13.3013L12.3108 11.6812C13.3881 11.6236 14.4572 12.0101 15.2549 12.7996C16.3733 13.918 16.7023 15.5874 16.0855 17.0513C16.0526 17.1417 16.0362 17.2322 16.0279 17.3226C16.0279 17.4213 16.0362 17.52 16.0691 17.6187C16.0691 17.6351 16.0691 17.6598 16.0855 17.6763C16.1266 17.7749 16.1842 17.8654 16.2582 17.9394L25.0411 26.7223C25.1069 26.7881 25.1809 26.8292 25.2631 26.8703C25.3783 26.9279 25.5016 26.9608 25.625 26.9608C25.7319 26.9608 25.8388 26.9361 25.9375 26.895C27.4013 26.2782 29.0707 26.5989 30.1891 27.7256C30.9868 28.5233 31.3733 29.5924 31.3075 30.6697L29.6875 29.0496C29.5312 28.8933 29.3256 28.8111 29.1036 28.8111C28.8815 28.8111 28.6759 28.9016 28.5197 29.0496L27.2779 30.2914L26.0361 31.5331C25.8799 31.6894 25.7977 31.895 25.7977 32.117C25.7977 32.3391 25.8881 32.5447 26.0361 32.7009L27.6562 34.321C26.5789 34.3785 25.5098 33.992 24.7121 33.2025C23.5937 32.0841 23.2648 30.4147 23.8815 28.9509C23.9227 28.8522 23.9473 28.7453 23.9473 28.6384C23.9473 28.6384 23.9473 28.6302 23.9473 28.622C23.9473 28.5151 23.9227 28.4081 23.8733 28.3012C23.8322 28.2108 23.7829 28.1285 23.7088 28.0628L14.9342 19.2799C14.8684 19.2141 14.7944 19.173 14.7121 19.1318C14.4983 19.0249 14.2598 19.0085 14.0378 19.0989C12.574 19.7157 10.9046 19.395 9.78617 18.2684H9.77794ZM18.4621 25.1269L16.801 26.7881L16.4967 26.4838L16.1924 26.1795L17.8536 24.5183L18.4621 25.1269ZM11.3898 33.9674C10.7566 34.6006 9.64637 34.6006 9.01314 33.9674C8.69242 33.6466 8.51972 33.2272 8.51972 32.7831C8.51972 32.3391 8.69242 31.9114 9.01314 31.5989L14.1447 26.4674L16.5214 28.844L11.3898 33.9756V33.9674Z" fill="black"/>
</g>
</svg>
