<svg width="40" height="40" viewBox="0 0 40 40" fill="none" xmlns="http://www.w3.org/2000/svg">
<g id="Vector">
<path id="Vector_2" d="M39.1941 12.81C38.3313 11.5456 36.9018 10.7911 35.3702 10.7911H31.3839C31.5862 10.0655 31.6945 9.30122 31.6945 8.51212C31.6945 3.82634 27.8835 0.0139771 23.1986 0.0139771C18.5128 0.0139771 14.7004 3.82634 14.7004 8.51212C14.7004 9.30122 14.8092 10.0655 15.0116 10.7911H10.8357C10.5836 9.64563 10.3107 8.41537 10.0053 7.04931C9.7821 6.03919 8.87006 5.30557 7.83731 5.30557L2.22795 5.29891C0.999469 5.29891 0 6.29927 0 7.52908C0 8.75755 0.999469 9.75702 2.22795 9.75702H6.05362L10.0435 28.1411V32.5895C10.0435 34.6621 11.4948 36.4511 13.4808 36.9087C14.0671 38.5344 15.6245 39.7003 17.4499 39.7003C19.2318 39.7003 20.7581 38.5889 21.375 37.0232H27.5857C28.2026 38.5889 29.7289 39.7003 31.5108 39.7003C33.8364 39.7003 35.7288 37.8083 35.7288 35.4822C35.7288 33.1567 33.8368 31.2642 31.5108 31.2642C30.316 31.2642 29.2367 31.7644 28.4689 32.5651H20.4918C19.7235 31.7644 18.6442 31.2642 17.4499 31.2642C16.3022 31.2642 15.2605 31.7254 14.4994 32.4719V30.1547L28.9611 30.1503H29.0112C31.0554 30.1494 32.406 30.1485 33.5124 29.6093C34.6392 29.0603 35.3968 28.0333 36.2143 25.9456L39.681 17.107C40.2393 15.681 40.0573 14.0744 39.1941 12.81ZM23.1995 1.26775C27.1925 1.26775 30.4412 4.51736 30.4412 8.51168C30.4412 12.5047 27.1925 15.7534 23.1995 15.7534C19.2052 15.7534 15.9556 12.5047 15.9556 8.51168C15.9556 4.51736 19.2052 1.26775 23.1995 1.26775ZM28.3717 15.2466H29.625V17.897H26.1766V16.4688C26.9715 16.1701 27.71 15.7561 28.3717 15.2466ZM21.4739 19.1508H24.9224V21.799H21.4739V19.1508ZM20.2202 21.799H16.7739V19.1508H20.2202V21.799ZM26.1766 19.1508H29.625V21.799H26.1766V19.1508ZM24.9224 17.897H21.4739V16.8314C22.0314 16.9468 22.6083 17.0076 23.1995 17.0076C23.7898 17.0076 24.3658 16.9468 24.9224 16.8319V17.897ZM20.2202 17.897H16.7739V15.2466H18.0259C18.6877 15.7556 19.4257 16.1697 20.2202 16.4679V17.897ZM15.5197 17.897H12.3735L11.8028 15.2466H15.5197V17.897ZM15.5197 19.1508V21.799H13.2137L12.6434 19.1508H15.5197ZM15.5197 23.0532V25.6993C14.9876 25.6993 14.4936 25.6993 14.0538 25.6993L13.484 23.0532H15.5197ZM16.7739 23.0532H20.2202V25.7006C19.0338 25.7001 17.8551 25.6997 16.7739 25.6993V23.0532ZM21.4739 23.0532H24.9224V25.7028C23.863 25.7024 22.6815 25.7019 21.4739 25.701V23.0532ZM26.1766 23.0532H29.625V25.7059C29.4244 25.7072 27.5631 25.7046 26.1766 25.7037V23.0532ZM30.8792 23.0532H32.5684L32.0695 24.3252C31.7429 25.1582 31.5063 25.4907 30.8792 25.622V23.0532ZM33.0606 21.799H30.8792V19.1508H34.0991L33.0606 21.799ZM34.5908 17.897H30.8792V15.2466H35.3706C35.4554 15.2466 35.5002 15.2861 35.5229 15.3193C35.5459 15.3526 35.5668 15.4094 35.5362 15.4871L34.5908 17.897ZM31.5108 32.518C33.1449 32.518 34.4746 33.8477 34.4746 35.4818C34.4746 37.1159 33.1449 38.4456 31.5108 38.4456C29.8767 38.4456 28.547 37.1159 28.547 35.4818C28.547 33.8477 29.8762 32.518 31.5108 32.518ZM27.635 33.8188C27.4148 34.3297 27.2928 34.8915 27.2928 35.4818C27.2928 35.5781 27.2972 35.6735 27.3034 35.7685H21.6568C21.663 35.6735 21.6674 35.5781 21.6674 35.4818C21.6674 34.8915 21.5449 34.3292 21.3253 33.8188H27.635ZM17.4494 32.518C19.0835 32.518 20.4132 33.8477 20.4132 35.4818C20.4132 37.1159 19.0835 38.4456 17.4494 38.4456C15.8153 38.4456 14.4856 37.1159 14.4856 35.4818C14.4856 33.8477 15.8153 32.518 17.4494 32.518ZM38.5133 16.6495L35.0466 25.488C33.7125 28.8938 32.9026 28.8943 29.0099 28.896L13.8718 28.9005C13.5257 28.9005 13.2447 29.1814 13.2447 29.5276V32.5895C13.2447 32.9756 13.4245 33.32 13.7041 33.5459C13.4027 34.1264 13.2314 34.7846 13.2314 35.4822C13.2314 35.4929 13.2323 35.5031 13.2323 35.5138C12.0873 35.0247 11.2973 33.8845 11.2973 32.5895V28.0737C11.2973 28.0288 11.2924 27.9845 11.2831 27.9405L7.17203 8.99677C7.10945 8.70829 6.85426 8.5028 6.55912 8.5028H2.22795C1.69093 8.5028 1.25422 8.06609 1.25422 7.52908C1.25422 6.99073 1.69093 6.55313 2.22706 6.55313L7.83775 6.55979C8.28734 6.55979 8.68455 6.87933 8.78219 7.32137C9.13191 8.88493 9.43859 10.2692 9.71997 11.5522C9.78299 11.8398 10.0377 12.0449 10.3324 12.0449H15.4718C15.7962 12.7514 16.2152 13.4061 16.7118 13.9928H11.0261C10.8366 13.9928 10.6573 14.0784 10.5384 14.2258C10.4194 14.3731 10.3733 14.5666 10.4132 14.7517L12.9345 26.4582C12.9966 26.7471 13.2518 26.953 13.5474 26.953C17.5506 26.953 29.2092 26.9606 29.329 26.9606C31.4225 26.9606 32.4259 26.8514 33.2372 24.7832L36.7038 15.9442C36.8778 15.4986 36.8232 15.0007 36.5578 14.6123C36.2929 14.2245 35.8491 13.9932 35.3702 13.9932H29.6849C30.1816 13.4065 30.6001 12.7519 30.9245 12.0453H35.3702C36.5037 12.0453 37.5196 12.5819 38.1582 13.517C38.7969 14.4526 38.9265 15.5945 38.5133 16.6495ZM17.4494 37.5034C18.5638 37.5034 19.4706 36.5967 19.4706 35.4822C19.4706 34.3678 18.5638 33.4611 17.4494 33.4611C16.335 33.4611 15.4283 34.3678 15.4283 35.4822C15.4283 36.5967 16.3355 37.5034 17.4494 37.5034ZM17.4494 34.7149C17.8724 34.7149 18.2163 35.0588 18.2163 35.4818C18.2163 35.9048 17.8724 36.2487 17.4494 36.2487C17.0265 36.2487 16.6825 35.9048 16.6825 35.4818C16.6825 35.0593 17.0269 34.7149 17.4494 34.7149ZM31.5108 37.5034C32.6252 37.5034 33.5319 36.5967 33.5319 35.4822C33.5319 34.3678 32.6252 33.4611 31.5108 33.4611C30.3964 33.4611 29.4897 34.3678 29.4897 35.4822C29.4897 36.5967 30.3964 37.5034 31.5108 37.5034ZM31.5108 34.7149C31.9337 34.7149 32.2777 35.0588 32.2777 35.4818C32.2777 35.9048 31.9337 36.2487 31.5108 36.2487C31.0878 36.2487 30.7439 35.9048 30.7439 35.4818C30.7434 35.0593 31.0878 34.7149 31.5108 34.7149ZM20.9493 11.8354C21.2986 12.1763 21.754 12.3462 22.2098 12.3462C22.6753 12.3462 23.1409 12.1687 23.4933 11.8145L27.512 7.75764C27.8529 7.41502 28.0397 6.96011 28.0384 6.47679C28.037 5.99348 27.848 5.53946 27.5045 5.19772C26.7953 4.49517 25.6476 4.50005 24.9459 5.20882L22.1885 7.99331L21.4287 7.25258C20.7141 6.55846 19.5669 6.57355 18.8701 7.28764C18.5328 7.6347 18.3517 8.09228 18.3592 8.57648C18.3668 9.05935 18.5621 9.50982 18.9069 9.84356L20.9493 11.8354ZM19.7684 8.16284C19.8771 8.05145 20.0222 7.99508 20.1673 7.99508C20.3071 7.99508 20.4469 8.04701 20.5543 8.15175L21.7593 9.32563C22.0061 9.56574 22.4002 9.56219 22.6425 9.31765L25.8375 6.09156C26.0528 5.87454 26.4047 5.87321 26.6217 6.08801C26.7269 6.19275 26.7851 6.33211 26.7851 6.48034C26.7855 6.62858 26.7282 6.76838 26.6226 6.87401L22.6039 10.9309C22.3904 11.1457 22.0411 11.1484 21.825 10.9376L19.7799 8.94351C19.6743 8.84143 19.6152 8.7043 19.6126 8.55651C19.6104 8.40827 19.6658 8.26803 19.7684 8.16284Z" fill="black"/>
</g>
</svg>
