<?xml version="1.0" standalone="no"?>
<!DOCTYPE svg PUBLIC "-//W3C//DTD SVG 20010904//EN"
 "http://www.w3.org/TR/2001/REC-SVG-20010904/DTD/svg10.dtd">
<svg version="1.0" xmlns="http://www.w3.org/2000/svg"
 width="512.000000pt" height="512.000000pt" viewBox="0 0 512.000000 512.000000"
 preserveAspectRatio="xMidYMid meet">

<g transform="translate(0.000000,512.000000) scale(0.100000,-0.100000)"
fill="#000000" stroke="none">
<path d="M1766 5110 c-416 -66 -754 -363 -870 -764 -37 -127 -51 -275 -36
-398 52 -452 353 -804 790 -926 86 -24 111 -27 270 -27 151 0 186 3 260 23
309 84 558 286 694 565 262 533 45 1166 -489 1428 -141 69 -267 99 -430 104
-71 2 -157 0 -189 -5z m387 -350 c188 -63 345 -198 431 -373 59 -120 79 -205
79 -337 -3 -554 -579 -907 -1078 -661 -191 95 -326 263 -387 478 -29 106 -29
266 1 376 54 202 199 381 386 475 125 63 217 83 366 77 85 -3 124 -10 202 -35z"/>
<path d="M837 2544 c-209 -38 -384 -131 -537 -284 -157 -157 -248 -331 -285
-548 -13 -73 -15 -169 -13 -530 3 -427 4 -441 24 -468 11 -15 33 -37 48 -48
27 -21 39 -21 687 -24 641 -2 660 -2 698 17 112 58 113 224 0 281 -37 19 -61
20 -589 20 l-551 0 3 358 c4 357 4 357 31 437 72 216 235 379 454 453 l78 27
1035 0 1035 0 80 -27 c94 -32 178 -80 253 -146 80 -70 102 -82 153 -82 51 0
98 26 133 73 16 21 21 43 21 86 0 70 -23 104 -123 187 -120 99 -239 159 -407
206 l-80 23 -1035 2 c-857 1 -1048 -1 -1113 -13z"/>
<path d="M3685 1700 c-63 -19 -86 -61 -330 -590 -131 -283 -247 -535 -257
-559 l-20 -43 -135 238 c-74 132 -149 254 -166 272 -17 18 -49 37 -70 43 -23
6 -158 9 -355 7 -299 -3 -319 -4 -352 -24 -101 -59 -104 -195 -6 -268 26 -20
45 -21 304 -26 l276 -5 201 -350 c180 -316 204 -352 240 -372 68 -38 146 -25
196 34 14 16 137 272 273 569 137 296 252 545 255 551 4 7 115 -186 254 -442
266 -487 281 -508 359 -520 24 -3 180 -5 348 -3 300 3 306 3 343 27 99 61 101
193 3 265 -26 20 -45 21 -303 26 l-276 5 -301 551 c-165 304 -307 559 -315
568 -34 40 -113 62 -166 46z"/>
</g>
</svg>
