<svg width="41" height="52" viewBox="0 0 41 52" fill="none" xmlns="http://www.w3.org/2000/svg">
<path d="M37.2619 5.57933C37.3323 5.65998 37.4345 5.70598 37.5413 5.70598C37.6492 5.70598 37.7503 5.65998 37.8218 5.57933L40.4058 2.97377C40.5035 2.86302 40.5273 2.70628 40.4671 2.57169C40.4058 2.43823 40.2718 2.3519 40.1247 2.3519H39.1984V0.515286C39.199 0.308567 39.0326 0.141602 38.8259 0.141602H36.2572C36.0505 0.141602 35.8835 0.308567 35.8835 0.515286V2.3519H34.9579C34.8108 2.3519 34.6767 2.43823 34.6165 2.57169C34.5558 2.70628 34.5808 2.86302 34.6779 2.97377L37.2619 5.57933Z" fill="black"/>
<path d="M24.8593 23.3594C23.791 22.1685 22.7359 20.8379 21.7858 19.6407C21.3377 19.0751 20.9089 18.5356 20.508 18.0454L20.4784 18.0097C21.0656 16.3372 21.4013 14.9685 21.4762 13.9406C21.6665 11.322 21.374 9.63528 20.5829 8.78512C20.0485 8.20983 19.2461 8.00936 18.4913 8.26321C17.9507 8.44437 17.2186 8.92994 16.8001 10.2123C16.1765 12.1239 16.4786 15.5092 18.2517 18.309C17.4606 20.3807 16.3577 22.7614 15.1395 25.0279C12.8196 25.8411 10.9705 26.9105 9.64329 28.2076C7.90946 29.9 7.20469 31.5799 7.70899 32.8156C8.01964 33.5812 8.73804 34.0378 9.63023 34.0378C10.2515 34.0378 10.9234 33.8134 11.5736 33.3898C13.2154 32.3164 15.3593 28.7403 16.5093 26.668C18.8883 25.9252 21.2372 25.6214 22.4309 25.5061C22.971 25.4538 23.5071 25.4124 24.0233 25.3834C26.1127 27.5897 27.8215 28.7534 29.3957 29.0436C29.7126 29.1026 30.0295 29.1322 30.339 29.1322C31.6219 29.1322 32.6822 28.6205 33.1769 27.7635C33.55 27.1161 33.5426 26.3608 33.1559 25.6906C32.2824 24.1783 29.6462 23.3457 25.7327 23.3457C25.451 23.3463 25.1603 23.3503 24.8593 23.3594ZM10.4844 31.7258C10.1737 31.9286 9.85455 32.0495 9.62966 32.0495C9.58707 32.0495 9.5581 32.045 9.54163 32.041C9.50245 31.8428 9.64329 30.9858 11.0318 29.6291C11.6838 28.9919 12.5084 28.4104 13.4846 27.8958C12.2528 29.8778 11.1443 31.2948 10.4844 31.7258ZM18.6889 10.8296C18.8338 10.3861 19.0132 10.1856 19.1251 10.1481C19.1279 10.1475 19.1302 10.1464 19.1325 10.1458C19.2404 10.2674 19.6993 10.9619 19.4937 13.7981C19.4579 14.2927 19.3375 14.918 19.1348 15.6608C18.4714 13.9525 18.2891 12.0546 18.6889 10.8296ZM22.2389 23.5286C21.1815 23.6303 19.5709 23.8398 17.774 24.2652C18.4709 22.8738 19.116 21.4637 19.655 20.1569C19.8418 20.3909 20.0332 20.6311 20.2274 20.877C20.8777 21.6965 21.608 22.6177 22.365 23.5173L22.2389 23.5286ZM31.4328 26.6851C31.4624 26.7362 31.4618 26.7566 31.4544 26.7702C31.3709 26.9151 30.9933 27.1451 30.3362 27.1451C30.1528 27.1451 29.9574 27.1263 29.7558 27.0888C28.9357 26.9372 27.9794 26.3704 26.8396 25.3596C29.9324 25.5072 31.1824 26.2529 31.4328 26.6851Z" fill="black"/>
<path d="M29.0715 0.141602H3.35658C1.78064 0.141602 0.5 1.41883 0.5 2.99875V48.3963C0.5 49.9745 1.78064 51.2534 3.35658 51.2534H37.643C39.2223 51.2534 40.4996 49.9745 40.4996 48.3963V11.5702L29.0715 0.141602ZM29.0715 4.18114L36.4606 11.5702H29.0715V4.18114ZM37.6435 48.3963H3.35658V2.99875H26.2144V11.5702C26.2144 13.1484 27.4922 14.4274 29.0709 14.4274H37.643L37.6435 48.3963Z" fill="black"/>
<path d="M15.7796 36.6894C15.5462 36.4832 15.2662 36.3333 14.9482 36.2453C14.6341 36.1555 14.1843 36.1101 13.6113 36.1101H11.7094C11.3476 36.1101 11.075 36.193 10.8984 36.3583C10.7201 36.5253 10.6287 36.7956 10.6287 37.1607V42.8012C10.6287 43.1295 10.7099 43.385 10.87 43.5622C11.033 43.7439 11.25 43.8365 11.5146 43.8365C11.7679 43.8365 11.9814 43.7439 12.1484 43.5611C12.3119 43.3816 12.3954 43.1227 12.3954 42.7916V40.8624H13.6113C14.5501 40.8624 15.2713 40.6574 15.7535 40.2524C16.2441 39.8424 16.4935 39.2359 16.4935 38.4493C16.4935 38.083 16.4333 37.748 16.3134 37.4526C16.193 37.1534 16.0136 36.8972 15.7796 36.6894ZM14.5506 39.0479C14.4444 39.191 14.2928 39.2915 14.0861 39.3563C13.8663 39.4244 13.5863 39.4596 13.2524 39.4596H12.396V37.5072H13.2524C14.0242 37.5072 14.3371 37.6611 14.4615 37.7866C14.6273 37.9638 14.708 38.1904 14.708 38.4783C14.708 38.7157 14.6551 38.9071 14.5506 39.0479Z" fill="black"/>
<path d="M22.8053 36.8087C22.4969 36.539 22.1482 36.3521 21.7688 36.2539C21.3997 36.1585 20.9522 36.1096 20.4405 36.1096H18.509C18.1518 36.1096 17.8849 36.1954 17.7151 36.3657C17.5453 36.5361 17.459 36.803 17.459 37.1597V42.5253C17.459 42.7769 17.4811 42.9785 17.5266 43.1403C17.5782 43.3243 17.6896 43.468 17.8571 43.5674C18.0167 43.664 18.2404 43.7105 18.5391 43.7105H20.4706C20.8125 43.7105 21.1248 43.6884 21.3991 43.6441C21.6785 43.5986 21.9438 43.5191 22.1868 43.4084C22.4322 43.2965 22.6605 43.1454 22.8678 42.9592C23.1273 42.7206 23.3437 42.4464 23.5106 42.1425C23.6759 41.8398 23.8003 41.4962 23.8786 41.1226C23.957 40.7523 23.9968 40.3371 23.9968 39.8902C23.9962 38.5227 23.5947 37.4857 22.8053 36.8087ZM21.5144 41.9409C21.4184 42.0244 21.3032 42.0914 21.1714 42.1385C21.0334 42.1874 20.8994 42.2186 20.7716 42.2305C20.637 42.243 20.4468 42.2499 20.206 42.2499H19.2246V37.5669H20.0611C20.499 37.5669 20.8744 37.6146 21.1777 37.7083C21.461 37.7946 21.7052 38.0042 21.9034 38.3324C22.1068 38.6681 22.2101 39.1888 22.2101 39.8811C22.2101 40.8573 21.9767 41.5496 21.5144 41.9409Z" fill="black"/>
<path d="M29.5293 36.1101H26.0355C25.8027 36.1101 25.6141 36.1448 25.4596 36.2157C25.2944 36.2907 25.1711 36.4128 25.0928 36.5792C25.0201 36.7348 24.9849 36.9251 24.9849 37.1607V42.791C24.9849 43.13 25.0678 43.3907 25.2296 43.5656C25.3949 43.7451 25.6107 43.8365 25.8708 43.8365C26.1258 43.8365 26.3399 43.7468 26.5069 43.569C26.6693 43.3935 26.7516 43.1317 26.7516 42.791V40.5222H29.0505C29.3078 40.5222 29.5094 40.4603 29.6485 40.3371C29.7934 40.2093 29.8666 40.0378 29.8666 39.8265C29.8666 39.6158 29.7951 39.4437 29.6531 39.3154C29.5151 39.1893 29.3123 39.1257 29.0505 39.1257H26.7516V37.5378H29.5298C29.8019 37.5378 30.0114 37.4725 30.1528 37.343C30.2977 37.2113 30.3709 37.0358 30.3709 36.8217C30.3709 36.6121 30.2977 36.4384 30.1523 36.3043C30.0092 36.1749 29.8002 36.1101 29.5293 36.1101Z" fill="black"/>
</svg>
