<svg width="40" height="54" viewBox="0 0 40 54" fill="none" xmlns="http://www.w3.org/2000/svg">
<g id="Supplier">
<path id="Vector" d="M39.1735 32.1221L27.5908 43.7047C27.0991 44.1965 26.4981 44.4696 25.8425 44.5243L17.4833 45.3438C17.1009 45.3984 16.8277 45.5077 16.6091 45.7809L15.8989 46.4911L16.7184 47.3107C17.5379 48.1302 17.5379 49.4415 16.7184 50.261L13.8227 53.1567C13.4403 53.5391 12.8939 53.7576 12.3476 53.7576C11.8012 53.7576 11.2549 53.5391 10.8724 53.1567L5.51817 47.8024C5.24499 47.5292 5.24499 47.0375 5.51817 46.7643C5.79134 46.4911 6.28306 46.4911 6.55624 46.7643L11.8012 52.1186C11.9105 52.2279 12.0744 52.2825 12.2383 52.2825C12.4022 52.2825 12.5661 52.2279 12.6754 52.1186L15.5711 49.2229C15.7896 49.0044 15.7896 48.6219 15.5711 48.3487L5.4089 38.132C5.19035 37.9134 4.75327 37.9134 4.53473 38.132L1.63906 41.0276C1.52979 41.1369 1.47515 41.3008 1.47515 41.4647C1.47515 41.6286 1.52979 41.7925 1.63906 41.9018L3.93374 44.1965C4.20692 44.4696 4.20692 44.9614 3.93374 45.2345C3.66057 45.5077 3.16885 45.5077 2.89567 45.2345L0.600989 42.9399C0.218541 42.5574 0 42.0111 0 41.4647C0 40.9184 0.218541 40.372 0.600989 39.9896L3.49666 37.0939C4.31619 36.2743 5.62744 36.2743 6.44697 37.0939L7.15723 37.8041L9.94363 34.9631C10.2168 34.6899 10.7085 34.6899 10.9817 34.9631C11.2549 35.2363 11.2549 35.728 10.9817 36.0012L8.1953 38.8422L14.8062 45.4531L15.5164 44.7428C16.0081 44.2511 16.6091 43.9779 17.3194 43.8687L25.6786 43.0491C26.0064 42.9945 26.2796 42.8852 26.5528 42.612L38.1354 31.0294C38.6818 30.483 38.6818 29.5542 38.1354 29.0079L37.8076 28.68C37.2613 28.1337 36.3325 28.1337 35.7861 28.68L29.2299 35.2363C28.6835 35.7826 27.9733 36.1104 27.2084 36.1104H27.1537L22.4005 36.0012C22.4005 36.0012 22.4005 36.0012 22.3458 36.0012L17.7565 35.8919C17.374 35.8919 17.0462 35.5641 17.0462 35.127C17.0462 34.7446 17.374 34.4167 17.8111 34.4167L22.4551 34.526C22.8376 34.526 23.22 34.3621 23.4932 34.0889C23.821 33.7611 23.9303 33.4333 23.8756 32.887C23.821 32.1221 23.22 31.5211 22.4551 31.5211L16.1174 31.4664C15.735 31.4664 15.4072 31.6304 15.0793 31.9035L14.6969 32.286C14.4237 32.5592 13.932 32.5592 13.6588 32.286C13.3857 32.0128 13.3857 31.5211 13.6588 31.2479L14.0413 30.8655C14.5876 30.2645 15.3525 29.9913 16.1174 29.9913L22.4551 30.0459C23.9849 30.0459 25.2961 31.3025 25.3508 32.8323C25.3508 33.3787 25.3508 33.9797 24.9683 34.5807L27.2084 34.6353C27.6455 34.6353 27.9733 34.526 28.2465 34.1982L34.8027 27.642C35.95 26.4946 37.753 26.4946 38.9003 27.642L39.2281 27.9698C40.2662 29.1718 40.2662 31.0294 39.1735 32.1221ZM12.6754 49.9332C12.8393 49.9332 13.0578 49.8785 13.1671 49.7146C13.4403 49.4415 13.4403 48.9497 13.1671 48.6766L12.73 48.2395C12.4569 47.9663 11.9651 47.9663 11.692 48.2395C11.4188 48.5127 11.4188 49.0044 11.692 49.2775L12.129 49.7146C12.2929 49.8239 12.4568 49.9332 12.6754 49.9332ZM12.0744 21.0311V7.64545C12.0744 7.59082 12.0744 7.59082 12.0744 7.53618V7.48155V7.42691C12.0744 7.42691 12.0744 7.37228 12.129 7.37228L12.1837 7.31764L12.2383 7.26301L12.2929 7.20837L12.3476 7.15374L24.0395 0.324324C24.2581 0.215053 24.5313 0.215053 24.7498 0.324324L29.1206 2.83755L36.3325 6.98983L36.3871 7.04447L36.4417 7.0991L36.4964 7.15374L36.551 7.20837C36.551 7.20837 36.551 7.26301 36.6057 7.26301V7.31764V7.37228C36.6057 7.42691 36.6057 7.42691 36.6057 7.48155V18.8457C36.6057 19.2281 36.2778 19.556 35.8954 19.556C35.5129 19.556 35.1851 19.2281 35.1851 18.8457V8.90207L25.1322 14.748V26.44L32.7812 22.0145C33.109 21.796 33.6007 21.9053 33.7646 22.2877C33.9832 22.6155 33.8739 23.1072 33.4914 23.2712L24.7498 28.2976C24.7498 28.2976 24.6952 28.3522 24.6405 28.3522C24.6405 28.3522 24.5859 28.3522 24.5859 28.4069H24.5313C24.4766 28.4069 24.4766 28.4069 24.422 28.4069C24.3673 28.4069 24.3673 28.4069 24.3127 28.4069H24.2581C24.2034 28.4069 24.2034 28.4069 24.2034 28.3522C24.1488 28.3522 24.1488 28.3522 24.0942 28.2976L12.4569 21.6321C12.2383 21.5228 12.0744 21.2496 12.0744 21.0311ZM13.5496 20.594L23.6571 26.44V14.748L20.7614 13.0543V14.6388C20.7614 14.9119 20.6521 15.1305 20.4336 15.2398C20.3243 15.2944 20.1604 15.349 20.0512 15.349C19.9419 15.349 19.8326 15.2944 19.7233 15.2398L16.7184 13.6553C16.4999 13.5461 16.336 13.2729 16.336 12.9997V10.3772L13.6042 8.7928V20.594H13.5496ZM28.7382 4.3127L17.7565 10.5411V12.6719L19.2863 13.4914V11.8524C19.2863 11.5792 19.3955 11.3607 19.6687 11.2514L29.9948 5.02296L28.7382 4.3127ZM31.4153 5.84249L21.5263 11.7977L24.422 13.4914L34.5295 7.64545L31.4153 5.84249ZM14.2598 7.64545L17.0462 9.22988L27.263 3.43854L24.3673 1.79948L14.2598 7.64545Z" fill="black"/>
</g>
</svg>
