<svg width="41" height="50" viewBox="0 0 41 50" fill="none" xmlns="http://www.w3.org/2000/svg">
<path d="M40.3289 7.88042L33.1055 0.657108C33.0509 0.602454 32.986 0.559109 32.9146 0.529554C32.8432 0.499998 32.7667 0.484812 32.6894 0.484863H1.08836C0.93232 0.484863 0.782667 0.546852 0.672328 0.657191C0.561988 0.767531 0.5 0.917184 0.5 1.07323V49.1091C0.5 49.2651 0.561988 49.4148 0.672328 49.5251C0.782667 49.6355 0.93232 49.6975 1.08836 49.6975H39.9116C40.0677 49.6975 40.2173 49.6355 40.3277 49.5251C40.438 49.4148 40.5 49.2651 40.5 49.1091V8.29654C40.5003 8.14065 40.4387 7.99101 40.3289 7.88042ZM33.275 2.49328L38.4905 7.70818H33.2778L33.275 2.49328ZM1.67509 48.5213V1.66104H32.1016V8.29654C32.1016 8.45259 32.1636 8.60224 32.2739 8.71258C32.3843 8.82292 32.5339 8.88491 32.69 8.88491H39.3249V48.5213H1.67509ZM5.31901 39.9151H9.73119C9.88723 39.9151 10.0369 39.8531 10.1472 39.7428C10.2576 39.6324 10.3196 39.4828 10.3196 39.3267V31.2974C10.3196 31.1414 10.2576 30.9917 10.1472 30.8814C10.0369 30.771 9.88723 30.7091 9.73119 30.7091H5.31901C5.24177 30.7091 5.16529 30.7243 5.09393 30.7539C5.02258 30.7834 4.95776 30.8268 4.90316 30.8814C4.84857 30.9361 4.80529 31.0009 4.77578 31.0723C4.74627 31.1437 4.73112 31.2202 4.73119 31.2974V39.3267C4.73112 39.404 4.74627 39.4805 4.77578 39.5518C4.80529 39.6232 4.84857 39.6881 4.90316 39.7427C4.95776 39.7974 5.02258 39.8407 5.09393 39.8703C5.16529 39.8999 5.24177 39.9151 5.31901 39.9151ZM5.90737 31.8852H9.14337V38.7389H5.90737V31.8852ZM13.9689 25.329C13.8129 25.329 13.6632 25.391 13.5529 25.5014C13.4426 25.6117 13.3806 25.7613 13.3806 25.9174V39.3267C13.3806 39.4828 13.4426 39.6324 13.5529 39.7428C13.6632 39.8531 13.8129 39.9151 13.9689 39.9151H18.3811C18.5371 39.9149 18.6866 39.8529 18.7968 39.7426C18.907 39.6322 18.9689 39.4827 18.9689 39.3267V25.9174C18.9689 25.7613 18.907 25.6117 18.7966 25.5014C18.6863 25.391 18.5366 25.329 18.3806 25.329H13.9689ZM17.7928 38.7389H14.5573V26.5058H17.7928V38.7389ZM27.0338 39.9151C27.1898 39.9151 27.3395 39.8531 27.4498 39.7428C27.5602 39.6324 27.6222 39.4828 27.6222 39.3267V28.2462C27.6222 28.0902 27.5602 27.9405 27.4498 27.8302C27.3395 27.7199 27.1898 27.6579 27.0338 27.6579H22.6189C22.4629 27.658 22.3134 27.7201 22.2032 27.8304C22.093 27.9407 22.0311 28.0903 22.0311 28.2462V39.3267C22.0311 39.4828 22.093 39.6324 22.2034 39.7428C22.3137 39.8531 22.4634 39.9151 22.6194 39.9151H27.0338ZM23.2067 28.8341H26.4427V38.7389H23.2067V28.8341ZM36.2688 12.2811C36.2689 12.3584 36.2537 12.4349 36.2242 12.5062C36.1947 12.5776 36.1514 12.6425 36.0968 12.6971C36.0422 12.7518 35.9774 12.7951 35.9061 12.8247C35.8347 12.8543 35.7582 12.8695 35.681 12.8695H22.1492C22.0704 12.8719 21.992 12.8585 21.9186 12.83C21.8451 12.8015 21.7781 12.7586 21.7216 12.7037C21.665 12.6489 21.6201 12.5832 21.5894 12.5107C21.5587 12.4381 21.5429 12.3602 21.5429 12.2814C21.5429 12.2026 21.5587 12.1246 21.5894 12.0521C21.6201 11.9796 21.665 11.9139 21.7216 11.8591C21.7781 11.8042 21.8451 11.7613 21.9186 11.7328C21.992 11.7043 22.0704 11.6909 22.1492 11.6933H35.681C35.8369 11.6933 35.9864 11.7552 36.0966 11.8655C36.2069 11.9757 36.2688 12.1252 36.2688 12.2811ZM35.681 19.3869H31.2688C31.1128 19.3869 30.9631 19.4489 30.8528 19.5592C30.7424 19.6695 30.6804 19.8192 30.6804 19.9752V39.3267C30.6804 39.4828 30.7424 39.6324 30.8528 39.7428C30.9631 39.8531 31.1128 39.9151 31.2688 39.9151H35.681C35.7582 39.9151 35.8347 39.8999 35.9061 39.8703C35.9774 39.8407 36.0422 39.7974 36.0968 39.7427C36.1514 39.6881 36.1947 39.6232 36.2242 39.5518C36.2537 39.4805 36.2689 39.404 36.2688 39.3267V19.9752C36.2689 19.898 36.2537 19.8215 36.2242 19.7501C36.1947 19.6787 36.1514 19.6139 36.0968 19.5592C36.0422 19.5046 35.9774 19.4612 35.9061 19.4317C35.8347 19.4021 35.7582 19.3869 35.681 19.3869ZM35.0926 38.7389H31.8566V20.5636H35.0926V38.7389ZM36.2688 15.5636C36.2689 15.6408 36.2537 15.7173 36.2242 15.7887C36.1947 15.8601 36.1514 15.925 36.0968 15.9796C36.0422 16.0342 35.9774 16.0776 35.9061 16.1072C35.8347 16.1367 35.7582 16.152 35.681 16.152H22.1492C22.0704 16.1544 21.992 16.1409 21.9186 16.1125C21.8451 16.084 21.7781 16.0411 21.7216 15.9862C21.665 15.9314 21.6201 15.8657 21.5894 15.7932C21.5587 15.7206 21.5429 15.6427 21.5429 15.5639C21.5429 15.4851 21.5587 15.4071 21.5894 15.3346C21.6201 15.262 21.665 15.1964 21.7216 15.1415C21.7781 15.0867 21.8451 15.0438 21.9186 15.0153C21.992 14.9868 22.0704 14.9734 22.1492 14.9758H35.681C35.8369 14.9758 35.9864 15.0377 36.0966 15.148C36.2069 15.2582 36.2688 15.4077 36.2688 15.5636ZM12.1437 20.0376C13.703 20.0376 15.2272 19.5752 16.5237 18.7089C17.8202 17.8426 18.8307 16.6113 19.4274 15.1707C20.0241 13.7302 20.1803 12.145 19.8761 10.6157C19.5719 9.08633 18.821 7.68156 17.7184 6.57899C16.6159 5.47641 15.2111 4.72555 13.6818 4.42135C12.1524 4.11714 10.5673 4.27327 9.12668 4.86998C7.68609 5.46669 6.4548 6.47719 5.58851 7.77368C4.72222 9.07017 4.25984 10.5944 4.25984 12.1537C4.26216 14.2439 5.09352 16.2479 6.57153 17.7259C8.04954 19.2039 10.0535 20.0353 12.1437 20.0376ZM7.16776 16.6435L11.8916 13.2954V18.8576C10.9958 18.8238 10.1158 18.6104 9.30396 18.2301C8.49213 17.8497 7.76495 17.3102 7.16557 16.6435H7.16776ZM18.853 12.1537C18.8509 13.7724 18.2642 15.3358 17.2009 16.5562C16.1376 17.7767 14.6693 18.572 13.0662 18.7958V5.51166C14.6688 5.73605 16.1366 6.53159 17.1994 7.75196C18.2622 8.97232 18.8487 10.5354 18.8508 12.1537H18.853ZM11.8894 5.45315V11.8535L6.45691 15.7041C5.83344 14.7077 5.48302 13.5648 5.44084 12.3901C5.39866 11.2155 5.6662 10.0504 6.2166 9.0118C6.767 7.97321 7.5809 7.09767 8.57662 6.47304C9.57233 5.84842 10.7148 5.49669 11.8894 5.45315ZM36.2688 43.0915C36.2692 43.169 36.2544 43.2457 36.225 43.3174C36.1957 43.3891 36.1524 43.4543 36.0978 43.5093C36.0432 43.5642 35.9782 43.6078 35.9067 43.6375C35.8352 43.6673 35.7585 43.6826 35.681 43.6826H5.31901C5.16296 43.6826 5.01331 43.6206 4.90297 43.5103C4.79263 43.3999 4.73064 43.2503 4.73064 43.0942C4.73064 42.9382 4.79263 42.7885 4.90297 42.6782C5.01331 42.5678 5.16296 42.5059 5.31901 42.5059H35.681C35.8365 42.5059 35.9857 42.5675 36.0959 42.6773C36.206 42.787 36.2682 42.936 36.2688 43.0915Z" fill="black"/>
</svg>
