<svg width="30" height="30" viewBox="0 0 30 30" fill="none" xmlns="http://www.w3.org/2000/svg">
<g id="search">
<mask id="mask0_873_9160" style="mask-type:alpha" maskUnits="userSpaceOnUse" x="0" y="0" width="30" height="30">
<rect id="Bounding box" width="30" height="30" fill="#D9D9D9"/>
</mask>
<g mask="url(#mask0_873_9160)">
<path id="search_2" d="M24.6138 25.7083L16.5898 17.6843C15.9669 18.2232 15.2439 18.6405 14.4208 18.9362C13.5977 19.232 12.7459 19.3798 11.8654 19.3798C9.73837 19.3798 7.9382 18.6436 6.46488 17.171C4.99155 15.6985 4.25488 13.9085 4.25488 11.8009C4.25488 9.69329 4.99114 7.90258 6.46366 6.42877C7.93616 4.95493 9.72775 4.21802 11.8384 4.21802C13.9491 4.21802 15.7411 4.95447 17.2145 6.42736C18.688 7.90026 19.4247 9.69085 19.4247 11.7991C19.4247 12.6804 19.2749 13.5329 18.9752 14.3566C18.6755 15.1803 18.2532 15.9167 17.7084 16.5657L25.7452 24.569L24.6138 25.7083ZM11.8526 17.8094C13.5277 17.8094 14.9468 17.2264 16.1098 16.0605C17.2727 14.8947 17.8542 13.4742 17.8542 11.7989C17.8542 10.1237 17.2727 8.70318 16.1098 7.5373C14.9468 6.37143 13.5277 5.78849 11.8526 5.78849C10.1704 5.78849 8.74525 6.37143 7.57729 7.5373C6.40933 8.70318 5.82535 10.1237 5.82535 11.7989C5.82535 13.4742 6.40933 14.8947 7.57729 16.0605C8.74525 17.2264 10.1704 17.8094 11.8526 17.8094Z" fill="#1C1B1F"/>
</g>
</g>
</svg>
