<svg width="51" height="31" viewBox="0 0 51 31" fill="none" xmlns="http://www.w3.org/2000/svg">
<path d="M50.3908 24.5062C48.1475 22.6441 45.2766 20.768 42.7435 19.1123C39.5359 17.0157 36.5049 15.0358 35.597 13.6322C34.9315 12.6763 34.2909 11.6929 33.6706 10.7415C32.0409 8.2417 30.3565 5.65727 28.1482 3.44954L28.1273 3.42642C26.9352 2.11531 25.8091 0.876953 24.353 0.876953C23.8895 0.876953 23.4113 1.00722 22.9201 1.27282C21.5244 2.10911 20.2827 4.00725 19.3759 5.3928C19.2569 5.57494 19.143 5.74919 19.0432 5.89919C13.4345 13.5916 8.17879 20.3309 0.645426 24.9099C0.547304 24.9692 0.491476 25.0797 0.501063 25.1936C0.510086 25.3081 0.583395 25.4073 0.689975 25.4502C0.805578 25.4964 12.3856 30.0929 23.303 30.0929C34.2086 30.0929 50.1291 25.0786 50.2887 25.0284C50.3947 24.9945 50.4731 24.906 50.4945 24.7977C50.5154 24.6889 50.4759 24.5772 50.3908 24.5062ZM23.303 29.4867C13.8755 29.4867 3.9308 26.0158 1.48397 25.1045C8.83349 20.4776 14.0159 13.8233 19.5406 6.24657C19.6483 6.08416 19.7633 5.90878 19.884 5.72438C20.7586 4.38846 21.9558 2.55799 23.2201 1.79952C23.6149 1.58636 23.9854 1.4826 24.3536 1.4826C25.5418 1.4826 26.5799 2.62453 27.679 3.83413L27.7106 3.86797C29.8839 6.0413 31.477 8.48531 33.1637 11.0726C33.7862 12.0273 34.4302 13.0147 35.0945 13.97C36.0673 15.4722 39.0075 17.3941 42.4125 19.6204C44.7702 21.1605 47.4212 22.8934 49.568 24.6167C46.6965 25.4874 32.9855 29.4867 23.303 29.4867Z" fill="black"/>
<path d="M15.296 19.4113C15.7803 19.4113 16.1728 19.0187 16.1728 18.5344C16.1728 18.0501 15.7803 17.6575 15.296 17.6575C14.8117 17.6575 14.4191 18.0501 14.4191 18.5344C14.4191 19.0187 14.8117 19.4113 15.296 19.4113Z" fill="black"/>
<path d="M22.91 7.44201C23.3943 7.44201 23.7869 7.04942 23.7869 6.56512C23.7869 6.08083 23.3943 5.68823 22.91 5.68823C22.4257 5.68823 22.0331 6.08083 22.0331 6.56512C22.0331 7.04942 22.4257 7.44201 22.91 7.44201Z" fill="black"/>
<path d="M17.9859 13.1613C18.4702 13.1613 18.8628 12.7687 18.8628 12.2844C18.8628 11.8001 18.4702 11.4075 17.9859 11.4075C17.5016 11.4075 17.109 11.8001 17.109 12.2844C17.109 12.7687 17.5016 13.1613 17.9859 13.1613Z" fill="black"/>
<path d="M10.523 21.7982C11.0073 21.7982 11.3999 21.4056 11.3999 20.9213C11.3999 20.437 11.0073 20.0444 10.523 20.0444C10.0387 20.0444 9.64612 20.437 9.64612 20.9213C9.64612 21.4056 10.0387 21.7982 10.523 21.7982Z" fill="black"/>
<path d="M13.5428 26.4308C14.0271 26.4308 14.4197 26.0382 14.4197 25.5539C14.4197 25.0696 14.0271 24.677 13.5428 24.677C13.0585 24.677 12.6659 25.0696 12.6659 25.5539C12.6659 26.0382 13.0585 26.4308 13.5428 26.4308Z" fill="black"/>
<path d="M19.0466 23.8436C19.5309 23.8436 19.9235 23.451 19.9235 22.9667C19.9235 22.4824 19.5309 22.0898 19.0466 22.0898C18.5623 22.0898 18.1697 22.4824 18.1697 22.9667C18.1697 23.451 18.5623 23.8436 19.0466 23.8436Z" fill="black"/>
<path d="M22.0336 18.5348C22.5179 18.5348 22.9105 18.1422 22.9105 17.6579C22.9105 17.1736 22.5179 16.781 22.0336 16.781C21.5493 16.781 21.1567 17.1736 21.1567 17.6579C21.1567 18.1422 21.5493 18.5348 22.0336 18.5348Z" fill="black"/>
<path d="M23.5157 13.8431C24 13.8431 24.3926 13.4505 24.3926 12.9662C24.3926 12.482 24 12.0894 23.5157 12.0894C23.0314 12.0894 22.6388 12.482 22.6388 12.9662C22.6388 13.4505 23.0314 13.8431 23.5157 13.8431Z" fill="black"/>
<path d="M25.8643 22.2906C26.3486 22.2906 26.7412 21.898 26.7412 21.4138C26.7412 20.9295 26.3486 20.5369 25.8643 20.5369C25.38 20.5369 24.9874 20.9295 24.9874 21.4138C24.9874 21.898 25.38 22.2906 25.8643 22.2906Z" fill="black"/>
<path d="M24.6633 28.0096C25.1476 28.0096 25.5402 27.617 25.5402 27.1327C25.5402 26.6485 25.1476 26.2559 24.6633 26.2559C24.179 26.2559 23.7864 26.6485 23.7864 27.1327C23.7864 27.617 24.179 28.0096 24.6633 28.0096Z" fill="black"/>
<path d="M16.7897 16.4359C17.1308 16.4359 17.4072 16.1594 17.4072 15.8184C17.4072 15.4774 17.1308 15.2009 16.7897 15.2009C16.4487 15.2009 16.1722 15.4774 16.1722 15.8184C16.1722 16.1594 16.4487 16.4359 16.7897 16.4359Z" fill="black"/>
<path d="M18.8622 20.6609C19.2029 20.6609 19.4791 20.3846 19.4791 20.0439C19.4791 19.7032 19.2029 19.427 18.8622 19.427C18.5214 19.427 18.2452 19.7032 18.2452 20.0439C18.2452 20.3846 18.5214 20.6609 18.8622 20.6609Z" fill="black"/>
<path d="M14.1597 22.7074C14.5008 22.7074 14.7772 22.4309 14.7772 22.0899C14.7772 21.7489 14.5008 21.4724 14.1597 21.4724C13.8187 21.4724 13.5422 21.7489 13.5422 22.0899C13.5422 22.4309 13.8187 22.7074 14.1597 22.7074Z" fill="black"/>
<path d="M6.23724 25.078C6.57827 25.078 6.85473 24.8015 6.85473 24.4605C6.85473 24.1195 6.57827 23.843 6.23724 23.843C5.89621 23.843 5.61975 24.1195 5.61975 24.4605C5.61975 24.8015 5.89621 25.078 6.23724 25.078Z" fill="black"/>
<path d="M18.4297 26.8735C18.7704 26.8735 19.0466 26.5973 19.0466 26.2566C19.0466 25.9159 18.7704 25.6396 18.4297 25.6396C18.089 25.6396 17.8127 25.9159 17.8127 26.2566C17.8127 26.5973 18.089 26.8735 18.4297 26.8735Z" fill="black"/>
<path d="M22.6393 24.0603C22.98 24.0603 23.2562 23.7841 23.2562 23.4433C23.2562 23.1026 22.98 22.8264 22.6393 22.8264C22.2985 22.8264 22.0223 23.1026 22.0223 23.4433C22.0223 23.7841 22.2985 24.0603 22.6393 24.0603Z" fill="black"/>
<path d="M20.2612 15.5964C20.6019 15.5964 20.8781 15.3202 20.8781 14.9795C20.8781 14.6388 20.6019 14.3625 20.2612 14.3625C19.9205 14.3625 19.6443 14.6388 19.6443 14.9795C19.6443 15.3202 19.9205 15.5964 20.2612 15.5964Z" fill="black"/>
<path d="M20.5403 10.4889C20.8814 10.4889 21.1578 10.2124 21.1578 9.87139C21.1578 9.53036 20.8814 9.25391 20.5403 9.25391C20.1993 9.25391 19.9229 9.53036 19.9229 9.87139C19.9229 10.2124 20.1993 10.4889 20.5403 10.4889Z" fill="black"/>
<path d="M25.2801 17.0536C25.6211 17.0536 25.8976 16.7771 25.8976 16.4361C25.8976 16.0951 25.6211 15.8186 25.2801 15.8186C24.9391 15.8186 24.6626 16.0951 24.6626 16.4361C24.6626 16.7771 24.9391 17.0536 25.2801 17.0536Z" fill="black"/>
<path d="M26.5026 25.078C26.8437 25.078 27.1201 24.8015 27.1201 24.4605C27.1201 24.1195 26.8437 23.843 26.5026 23.843C26.1616 23.843 25.8851 24.1195 25.8851 24.4605C25.8851 24.8015 26.1616 25.078 26.5026 25.078Z" fill="black"/>
<path d="M23.7863 9.87145C24.1273 9.87145 24.4038 9.59499 24.4038 9.25396C24.4038 8.91293 24.1273 8.63647 23.7863 8.63647C23.4453 8.63647 23.1688 8.91293 23.1688 9.25396C23.1688 9.59499 23.4453 9.87145 23.7863 9.87145Z" fill="black"/>
<path d="M25.4995 6.15011C25.8402 6.15011 26.1164 5.8739 26.1164 5.53319C26.1164 5.19247 25.8402 4.91626 25.4995 4.91626C25.1588 4.91626 24.8826 5.19247 24.8826 5.53319C24.8826 5.8739 25.1588 6.15011 25.4995 6.15011Z" fill="black"/>
<path d="M27.1196 10.826C27.4606 10.826 27.7371 10.5496 27.7371 10.2086C27.7371 9.86752 27.4606 9.59106 27.1196 9.59106C26.7785 9.59106 26.5021 9.86752 26.5021 10.2086C26.5021 10.5496 26.7785 10.826 27.1196 10.826Z" fill="black"/>
<path d="M28.3546 14.979C28.6953 14.979 28.9715 14.7028 28.9715 14.362C28.9715 14.0213 28.6953 13.7451 28.3546 13.7451C28.0139 13.7451 27.7377 14.0213 27.7377 14.362C27.7377 14.7028 28.0139 14.979 28.3546 14.979Z" fill="black"/>
<path d="M29.589 19.7694C29.9301 19.7694 30.2065 19.4929 30.2065 19.1519C30.2065 18.8109 29.9301 18.5344 29.589 18.5344C29.248 18.5344 28.9716 18.8109 28.9716 19.1519C28.9716 19.4929 29.248 19.7694 29.589 19.7694Z" fill="black"/>
<path d="M32.492 23.9411C32.8328 23.9411 33.109 23.6649 33.109 23.3242C33.109 22.9835 32.8328 22.7073 32.492 22.7073C32.1513 22.7073 31.8751 22.9835 31.8751 23.3242C31.8751 23.6649 32.1513 23.9411 32.492 23.9411Z" fill="black"/>
<path d="M29.589 27.0478C29.9297 27.0478 30.2059 26.7716 30.2059 26.4309C30.2059 26.0902 29.9297 25.814 29.589 25.814C29.2483 25.814 28.972 26.0902 28.972 26.4309C28.972 26.7716 29.2483 27.0478 29.589 27.0478Z" fill="black"/>
<path d="M36.5162 25.295C36.8572 25.295 37.1337 25.0186 37.1337 24.6775C37.1337 24.3365 36.8572 24.0601 36.5162 24.0601C36.1751 24.0601 35.8987 24.3365 35.8987 24.6775C35.8987 25.0186 36.1751 25.295 36.5162 25.295Z" fill="black"/>
<path d="M33.3487 17.6705C33.6897 17.6705 33.9662 17.3941 33.9662 17.053C33.9662 16.712 33.6897 16.4355 33.3487 16.4355C33.0077 16.4355 32.7312 16.712 32.7312 17.053C32.7312 17.3941 33.0077 17.6705 33.3487 17.6705Z" fill="black"/>
<path d="M37.7505 21.1544C38.0916 21.1544 38.368 20.878 38.368 20.5369C38.368 20.1959 38.0916 19.9194 37.7505 19.9194C37.4095 19.9194 37.1331 20.1959 37.1331 20.5369C37.1331 20.878 37.4095 21.1544 37.7505 21.1544Z" fill="black"/>
<path d="M42.2664 23.9418C42.6074 23.9418 42.8839 23.6653 42.8839 23.3243C42.8839 22.9832 42.6074 22.7068 42.2664 22.7068C41.9254 22.7068 41.6489 22.9832 41.6489 23.3243C41.6489 23.6653 41.9254 23.9418 42.2664 23.9418Z" fill="black"/>
<path d="M31.2576 12.7074C31.5987 12.7074 31.8751 12.4309 31.8751 12.0899C31.8751 11.7489 31.5987 11.4724 31.2576 11.4724C30.9166 11.4724 30.6401 11.7489 30.6401 12.0899C30.6401 12.4309 30.9166 12.7074 31.2576 12.7074Z" fill="black"/>
<path d="M22.6388 21.2783C22.9795 21.2783 23.2557 21.0021 23.2557 20.6614C23.2557 20.3206 22.9795 20.0444 22.6388 20.0444C22.2981 20.0444 22.0219 20.3206 22.0219 20.6614C22.0219 21.0021 22.2981 21.2783 22.6388 21.2783Z" fill="black"/>
<path d="M25.8976 19.4276C26.2387 19.4276 26.5151 19.1511 26.5151 18.8101C26.5151 18.4691 26.2387 18.1926 25.8976 18.1926C25.5566 18.1926 25.2802 18.4691 25.2802 18.8101C25.2802 19.1511 25.5566 19.4276 25.8976 19.4276Z" fill="black"/>
<path d="M12.3592 19.1517C12.7002 19.1517 12.9767 18.8753 12.9767 18.5342C12.9767 18.1932 12.7002 17.9167 12.3592 17.9167C12.0182 17.9167 11.7417 18.1932 11.7417 18.5342C11.7417 18.8753 12.0182 19.1517 12.3592 19.1517Z" fill="black"/>
<path d="M16.1729 25.078C16.5139 25.078 16.7904 24.8015 16.7904 24.4605C16.7904 24.1195 16.5139 23.843 16.1729 23.843C15.8319 23.843 15.5554 24.1195 15.5554 24.4605C15.5554 24.8015 15.8319 25.078 16.1729 25.078Z" fill="black"/>
<path d="M10.2636 25.078C10.6046 25.078 10.8811 24.8015 10.8811 24.4605C10.8811 24.1195 10.6046 23.843 10.2636 23.843C9.92258 23.843 9.64612 24.1195 9.64612 24.4605C9.64612 24.8015 9.92258 25.078 10.2636 25.078Z" fill="black"/>
<path d="M23.5156 4.27062C23.8566 4.27062 24.133 3.99416 24.133 3.65313C24.133 3.3121 23.8566 3.03564 23.5156 3.03564C23.1745 3.03564 22.8981 3.3121 22.8981 3.65313C22.8981 3.99416 23.1745 4.27062 23.5156 4.27062Z" fill="black"/>
<path d="M22.0337 26.8735C22.3744 26.8735 22.6506 26.5973 22.6506 26.2566C22.6506 25.9159 22.3744 25.6396 22.0337 25.6396C21.693 25.6396 21.4167 25.9159 21.4167 26.2566C21.4167 26.5973 21.693 26.8735 22.0337 26.8735Z" fill="black"/>
<path d="M18.8622 18.0973C19.2033 18.0973 19.4797 17.8208 19.4797 17.4798C19.4797 17.1388 19.2033 16.8623 18.8622 16.8623C18.5212 16.8623 18.2448 17.1388 18.2448 17.4798C18.2448 17.8208 18.5212 18.0973 18.8622 18.0973Z" fill="black"/>
</svg>
