<svg width="40" height="38" viewBox="0 0 40 38" fill="none" xmlns="http://www.w3.org/2000/svg">
<g id="Group 1">
<path id="Vector" d="M35.8201 0.75293H15.1458C12.8411 0.75293 10.9659 2.3896 10.9659 4.40145V12.0216L6.12353 2.82684C5.81689 2.23711 5.29066 1.79162 4.65841 1.58652C4.02616 1.38143 3.33862 1.43318 2.7442 1.73061C1.16382 2.26817 -0.78762 4.0089 0.330094 5.8778L11.005 26.1465C11.2283 29.059 9.97901 33.9245 12.1668 36.1552C12.557 36.538 13.025 36.8326 13.5389 37.0188C14.0529 37.2051 14.6009 37.2787 15.1458 37.2347H35.8201C38.1248 37.2347 40 35.598 40 33.5861V4.40145C40 2.3896 38.1248 0.75293 35.8201 0.75293ZM16.8138 26.8556L17.3976 31.2584L14.0966 28.2867L16.8138 26.8556ZM13.157 27.1678C13.0872 26.9957 4.01328 9.83457 3.61302 9.04627L6.87911 7.32612L16.4227 25.4474L13.157 27.1678ZM1.48407 4.44189C1.61035 3.94633 2.88425 3.01739 3.86693 2.89444C4.07119 2.89416 4.27165 2.94968 4.44666 3.05502C4.62166 3.16035 4.76458 3.31149 4.85996 3.49211L6.21368 6.06258L2.94761 7.78289L1.58868 5.2027C1.51441 5.09225 1.46637 4.96628 1.44824 4.83442C1.43011 4.70255 1.44237 4.56829 1.48407 4.44189ZM38.5718 33.5862C38.5718 34.8107 37.3375 35.8065 35.8201 35.8065H15.1249C11.6413 35.8691 12.2718 31.8496 12.3814 28.9035C12.3869 28.8252 12.391 28.7543 12.3962 28.6774L17.8822 33.6169C17.9908 33.7146 18.1267 33.7767 18.2717 33.7948C18.4166 33.8129 18.5637 33.786 18.6929 33.7179C18.8221 33.6498 18.9273 33.5437 18.9944 33.4139C19.0614 33.2841 19.087 33.1368 19.0677 32.992L18.0949 25.6524C18.0705 25.5711 18.0449 25.4946 18.0189 25.4139L12.3941 14.7334V4.40145C12.3941 3.17691 13.6284 2.18109 15.1458 2.18109H35.8201C37.3375 2.18109 38.5718 3.17691 38.5718 4.40145L38.5718 33.5862Z" fill="black"/>
<path id="Vector_2" d="M33.2078 6.1106H25.4191C25.2321 6.11429 25.0541 6.19116 24.9232 6.32468C24.7923 6.4582 24.719 6.63772 24.719 6.8247C24.719 7.01168 24.7923 7.1912 24.9232 7.32471C25.0541 7.45822 25.2322 7.53507 25.4191 7.53876H33.2078C33.3947 7.53507 33.5727 7.45821 33.7037 7.3247C33.8346 7.19118 33.9079 7.01166 33.9079 6.82468C33.9079 6.6377 33.8346 6.45817 33.7037 6.32466C33.5727 6.19114 33.3947 6.11429 33.2078 6.1106Z" fill="black"/>
<path id="Vector_3" d="M33.2078 9.03101H25.4191C25.2321 9.0347 25.0541 9.11157 24.9232 9.24509C24.7923 9.37861 24.719 9.55813 24.719 9.74511C24.719 9.93209 24.7923 10.1116 24.9232 10.2451C25.0541 10.3786 25.2322 10.4555 25.4191 10.4592H33.2078C33.3947 10.4555 33.5727 10.3786 33.7037 10.2451C33.8346 10.1116 33.9079 9.93207 33.9079 9.74509C33.9079 9.55811 33.8346 9.37858 33.7037 9.24507C33.5727 9.11155 33.3947 9.0347 33.2078 9.03101Z" fill="black"/>
<path id="Vector_4" d="M33.2078 12.9258H17.6298C17.4428 12.9295 17.2648 13.0063 17.1339 13.1399C17.003 13.2734 16.9297 13.4529 16.9297 13.6399C16.9297 13.8269 17.003 14.0064 17.1339 14.1399C17.2648 14.2734 17.4429 14.3503 17.6298 14.3539H33.2078C33.3948 14.3503 33.5728 14.2734 33.7037 14.1399C33.8346 14.0064 33.9079 13.8268 33.9079 13.6399C33.9079 13.4529 33.8346 13.2734 33.7037 13.1398C33.5728 13.0063 33.3948 12.9295 33.2078 12.9258Z" fill="black"/>
<path id="Vector_5" d="M33.2078 15.8469H17.6298C17.4428 15.8506 17.2648 15.9275 17.1339 16.061C17.003 16.1945 16.9297 16.374 16.9297 16.561C16.9297 16.748 17.003 16.9275 17.1339 17.061C17.2648 17.1946 17.4429 17.2714 17.6298 17.2751H33.2078C33.3947 17.2713 33.5727 17.1944 33.7035 17.0609C33.8343 16.9274 33.9076 16.7479 33.9076 16.561C33.9076 16.3741 33.8343 16.1946 33.7035 16.0611C33.5727 15.9276 33.3947 15.8507 33.2078 15.8469Z" fill="black"/>
<path id="Vector_6" d="M33.2078 18.7673H19.9108C19.7238 18.771 19.5458 18.8479 19.4149 18.9814C19.284 19.1149 19.2107 19.2945 19.2107 19.4814C19.2107 19.6684 19.284 19.8479 19.4149 19.9815C19.5458 20.115 19.7239 20.1918 19.9108 20.1955H33.2078C33.3947 20.1917 33.5726 20.1148 33.7035 19.9813C33.8343 19.8478 33.9076 19.6683 33.9076 19.4814C33.9076 19.2945 33.8343 19.115 33.7035 18.9815C33.5726 18.848 33.3947 18.7711 33.2078 18.7673Z" fill="black"/>
<path id="Vector_7" d="M33.2078 21.6887H21.1527C20.9658 21.6924 20.7877 21.7693 20.6568 21.9028C20.5259 22.0363 20.4526 22.2158 20.4526 22.4028C20.4526 22.5898 20.526 22.7693 20.6569 22.9028C20.7878 23.0363 20.9658 23.1132 21.1528 23.1169H33.2078C33.3947 23.1132 33.5728 23.0363 33.7037 22.9028C33.8346 22.7693 33.9079 22.5898 33.9079 22.4028C33.9079 22.2158 33.8346 22.0363 33.7037 21.9028C33.5728 21.7693 33.3947 21.6924 33.2078 21.6887Z" fill="black"/>
<path id="Vector_8" d="M33.2078 24.6091H22.4931C22.3061 24.6128 22.1281 24.6897 21.9972 24.8232C21.8663 24.9567 21.793 25.1363 21.793 25.3232C21.793 25.5102 21.8663 25.6897 21.9972 25.8232C22.1281 25.9568 22.3062 26.0336 22.4931 26.0373H33.2078C33.3948 26.0336 33.5728 25.9567 33.7037 25.8232C33.8346 25.6897 33.9079 25.5102 33.9079 25.3232C33.9079 25.1362 33.8346 24.9567 33.7037 24.8232C33.5728 24.6897 33.3948 24.6128 33.2078 24.6091Z" fill="black"/>
<path id="Vector_9" d="M33.2078 27.5303H23.5384C23.3515 27.534 23.1734 27.6108 23.0425 27.7444C22.9116 27.8779 22.8383 28.0574 22.8383 28.2444C22.8383 28.4314 22.9117 28.6109 23.0426 28.7444C23.1735 28.8779 23.3515 28.9548 23.5385 28.9584H33.2078C33.3948 28.9547 33.5728 28.8779 33.7037 28.7444C33.8346 28.6109 33.908 28.4313 33.908 28.2444C33.908 28.0574 33.8346 27.8779 33.7037 27.7443C33.5728 27.6108 33.3948 27.534 33.2078 27.5303Z" fill="black"/>
<path id="Vector_10" d="M33.2078 30.4507H24.537C24.3501 30.4544 24.172 30.5312 24.0411 30.6648C23.9102 30.7983 23.8369 30.9778 23.8369 31.1648C23.8369 31.3518 23.9102 31.5313 24.0412 31.6648C24.1721 31.7983 24.3501 31.8752 24.5371 31.8788H33.2078C33.3948 31.8752 33.5728 31.7983 33.7037 31.6648C33.8346 31.5313 33.9079 31.3517 33.9079 31.1648C33.9079 30.9778 33.8346 30.7983 33.7037 30.6647C33.5728 30.5312 33.3948 30.4544 33.2078 30.4507Z" fill="black"/>
</g>
</svg>
