<?xml version="1.0" standalone="no"?>
<!DOCTYPE svg PUBLIC "-//W3C//DTD SVG 20010904//EN"
 "http://www.w3.org/TR/2001/REC-SVG-20010904/DTD/svg10.dtd">
<svg version="1.0" xmlns="http://www.w3.org/2000/svg"
 width="512.000000pt" height="512.000000pt" viewBox="0 0 512.000000 512.000000"
 preserveAspectRatio="xMidYMid meet">

<g transform="translate(0.000000,512.000000) scale(0.100000,-0.100000)"
fill="#000000" stroke="none">
<path d="M2303 5110 c-573 -56 -1105 -304 -1519 -710 l-91 -89 -124 125 c-68
68 -142 133 -165 144 -55 27 -110 25 -172 -6 -95 -47 -94 -42 -170 -602 l-66
-489 19 -49 c23 -62 57 -96 118 -119 l49 -18 361 47 c587 77 625 83 664 107
72 45 107 140 83 229 -10 37 -36 69 -163 198 l-152 154 107 102 c324 310 701
495 1148 563 156 23 443 23 600 -1 902 -137 1601 -744 1821 -1580 37 -143 58
-284 68 -474 8 -147 9 -155 37 -194 80 -113 249 -112 329 1 l30 43 -1 151 c-6
631 -271 1253 -729 1711 -398 398 -920 657 -1497 741 -125 19 -459 27 -585 15z"/>
<path d="M2375 3840 c-492 -78 -875 -390 -1025 -838 -119 -359 -99 -705 60
-1022 185 -367 536 -629 940 -701 107 -19 354 -17 462 4 260 52 485 173 673
361 254 255 379 553 379 901 0 640 -389 1134 -1004 1277 -98 22 -386 33 -485
18z m440 -415 c307 -90 543 -331 627 -640 31 -116 31 -315 -1 -440 -106 -415
-441 -675 -871 -675 -401 0 -728 231 -849 600 -176 533 151 1079 706 1180 26
5 104 7 173 5 98 -3 144 -9 215 -30z"/>
<path d="M2492 3149 c-45 -13 -105 -76 -120 -125 -8 -28 -12 -119 -12 -272 l0
-230 28 -53 c22 -43 38 -59 81 -81 l53 -28 230 0 c260 0 294 6 348 60 68 68
77 180 20 259 -48 65 -76 75 -227 79 l-133 4 0 121 c0 97 -4 130 -19 162 -41
92 -144 134 -249 104z"/>
<path d="M132 2749 c-18 -5 -50 -27 -71 -48 -56 -56 -65 -102 -58 -279 27
-621 294 -1209 759 -1673 206 -205 430 -365 693 -494 244 -120 467 -191 725
-231 165 -26 546 -26 725 0 553 79 1073 333 1440 705 l79 81 136 -134 c112
-111 144 -136 180 -146 48 -13 107 -7 150 15 40 21 88 80 99 122 22 85 132
949 126 990 -12 81 -102 163 -181 163 -16 0 -238 -27 -494 -61 -514 -67 -531
-71 -582 -145 -38 -53 -46 -120 -23 -181 14 -37 52 -82 164 -196 l145 -147
-60 -61 c-516 -527 -1264 -737 -2004 -563 -160 38 -300 88 -465 168 -446 217
-795 558 -1000 981 -135 277 -195 518 -214 861 -9 172 -19 199 -87 247 -45 32
-126 43 -182 26z"/>
</g>
</svg>
