<svg width="40" height="46" viewBox="0 0 40 46" fill="none" xmlns="http://www.w3.org/2000/svg">
<g id="Customer">
<path id="Vector" d="M34.9913 39.6007C35.9923 39.6007 36.8753 38.9983 37.2407 38.0667L39.8634 31.3779C40.1004 30.7736 40.0266 30.1196 39.6607 29.5837C39.2948 29.0477 38.7132 28.7398 38.0642 28.7398H32.2069C30.9397 25.8613 28.9019 23.4016 26.2906 21.6054C24.1994 20.1671 21.8458 19.234 19.3763 18.8497C23.3183 17.7238 26.2123 14.0886 26.2123 9.79012C26.2123 4.5957 21.9861 0.370056 16.7922 0.370056C11.5978 0.370056 7.37164 4.5962 7.37164 9.79012C7.37164 14.0906 10.2681 17.7273 14.2131 18.8517C6.62745 20.0377 0.594646 26.363 0.00514822 34.2223C-0.0330278 34.729 0.142483 35.2322 0.486068 35.6026C0.829652 35.973 1.3185 36.1852 1.82669 36.1852H23.6356C23.8186 37.027 24.0199 37.9422 24.2509 38.977V40.1282C24.2509 40.9998 24.8449 41.7336 25.6486 41.9517C25.5301 42.2234 25.4636 42.5229 25.4636 42.8377C25.4636 44.0623 26.4597 45.0584 27.6843 45.0584C28.9089 45.0584 29.9049 44.0623 29.9049 42.8377C29.9049 42.5487 29.8489 42.2725 29.7478 42.0191H33.2277C33.1266 42.2725 33.0706 42.5487 33.0706 42.8377C33.0706 44.0623 34.0666 45.0584 35.2912 45.0584C36.5158 45.0584 37.5119 44.0623 37.5119 42.8377C37.5119 42.5313 37.4494 42.2388 37.3364 41.973C37.6006 41.8724 37.7885 41.6176 37.7885 41.3181C37.7885 40.9309 37.4747 40.617 37.0875 40.617H26.1414C25.8766 40.617 25.6525 40.3934 25.6525 40.1282V39.6007H34.9913ZM38.5025 30.373C38.6086 30.5286 38.6269 30.6903 38.558 30.8658L35.9353 37.5545C35.7771 37.9576 35.4241 38.1986 34.9913 38.1986H25.5132C25.0422 36.0795 23.9867 31.1335 23.7715 30.1414H38.0642C38.2526 30.1414 38.3964 30.2173 38.5025 30.373ZM8.77374 9.79012C8.77374 5.36864 12.3707 1.77166 16.7922 1.77166C21.2137 1.77166 24.8107 5.36864 24.8107 9.79012C24.8107 14.2116 21.2137 17.8086 16.7922 17.8086C12.3707 17.8086 8.77374 14.2116 8.77374 9.79012ZM1.82669 34.7831C1.70522 34.7831 1.59416 34.7355 1.51385 34.6487C1.43353 34.5619 1.39436 34.4479 1.40328 34.3269C2.00369 26.3223 8.76333 20.052 16.7922 20.052C22.7387 20.052 28.074 23.4284 30.6625 28.7393H23.4656C23.3496 28.2113 23.2256 27.6521 23.0917 27.0531C23.0204 26.7329 22.7358 26.5053 22.4076 26.5053H20.2514C19.8641 26.5053 19.5503 26.8191 19.5503 27.2063C19.5503 27.5936 19.8641 27.9074 20.2514 27.9074H21.8453C22.3168 30.0269 23.2157 34.2397 23.3322 34.7835L1.82669 34.7831ZM28.5023 42.8377C28.5023 43.2889 28.135 43.6563 27.6838 43.6563C27.2326 43.6563 26.8652 43.2889 26.8652 42.8377C26.8652 42.3865 27.2321 42.0196 27.6828 42.0191H27.6843C28.1355 42.0196 28.5023 42.3865 28.5023 42.8377ZM35.2907 43.6563C34.8396 43.6563 34.4722 43.2889 34.4722 42.8377C34.4722 42.3865 34.8391 42.0196 35.2897 42.0191H35.2912C35.7424 42.0196 36.1088 42.3865 36.1088 42.8377C36.1098 43.2889 35.7424 43.6563 35.2907 43.6563ZM33.3735 35.907L34.4018 32.0701C34.5019 31.6962 34.8867 31.4741 35.2605 31.5743C35.6343 31.6744 35.8564 32.0587 35.7563 32.433L34.728 36.2699C34.6442 36.5833 34.3606 36.7895 34.0513 36.7895C33.9913 36.7895 33.9303 36.7816 33.8693 36.7652C33.495 36.6656 33.2734 36.2813 33.3735 35.907ZM31.1806 36.026L31.5232 32.1891C31.5574 31.8033 31.8975 31.5183 32.2838 31.5535C32.6695 31.5877 32.9541 31.9283 32.9194 32.314L32.5768 36.1509C32.544 36.5153 32.2381 36.7895 31.8792 36.7895C31.8584 36.7895 31.837 36.7885 31.8162 36.7865C31.431 36.7523 31.1464 36.4117 31.1806 36.026ZM25.8305 32.433C25.7304 32.0592 25.9525 31.6744 26.3263 31.5743C26.7001 31.4741 27.0849 31.6962 27.185 32.0701L28.2133 35.907C28.3134 36.2808 28.0913 36.6656 27.7175 36.7657C27.6565 36.7821 27.5955 36.79 27.5355 36.79C27.2262 36.79 26.9426 36.5833 26.8588 36.2704L25.8305 32.433ZM28.6664 32.314C28.6322 31.9283 28.9168 31.5877 29.3021 31.5535C29.6883 31.5192 30.0284 31.8038 30.0626 32.1891L30.4052 36.026C30.4394 36.4117 30.1548 36.7523 29.7691 36.7865C29.7478 36.7885 29.7269 36.7895 29.7061 36.7895C29.3472 36.7895 29.0413 36.5153 29.0085 36.1509L28.6664 32.314Z" fill="black"/>
</g>
</svg>
