<svg width="31" height="33" viewBox="0 0 31 33" fill="none" xmlns="http://www.w3.org/2000/svg">
<g id="User">
<path id="Vector" d="M15.1578 15.4436C19.3683 15.4436 22.7368 12.0752 22.7368 7.86465C22.7368 3.65413 19.3683 0.285706 15.1578 0.285706C10.9473 0.285706 7.57886 3.65413 7.57886 7.86465C7.57886 12.0752 10.9473 15.4436 15.1578 15.4436ZM15.1578 1.96992C18.442 1.96992 21.0525 4.58044 21.0525 7.86465C21.0525 11.1489 18.442 13.7594 15.1578 13.7594C11.8736 13.7594 9.26307 11.1489 9.26307 7.86465C9.26307 4.58044 11.8736 1.96992 15.1578 1.96992Z" fill="black"/>
<path id="Vector_2" d="M15.1579 18.812C6.65263 18.812 0 22.5172 0 27.233V32.2856H30.3158V27.233C30.3158 22.5172 23.6632 18.812 15.1579 18.812ZM28.6316 30.6014H1.68421V27.233C1.68421 23.6119 7.83158 20.4962 15.1579 20.4962C22.4842 20.4962 28.6316 23.6119 28.6316 27.233V30.6014Z" fill="black"/>
</g>
</svg>
