<svg width="41" height="25" viewBox="0 0 41 25" fill="none" xmlns="http://www.w3.org/2000/svg">
<g id="dump_truck">
<path id="Vector" d="M29.524 7.67218C29.524 7.49492 29.5973 7.32491 29.7277 7.19957C29.858 7.07422 30.0348 7.0038 30.2192 7.0038H32.7149C33.526 7.00155 34.3243 7.19796 35.0346 7.5745C35.7449 7.95104 36.3438 8.4953 36.7747 9.15598L40.2088 14.3559C40.2811 14.4635 40.3197 14.5888 40.3201 14.7169V19.3955C40.3201 19.5728 40.2468 19.7428 40.1165 19.8681C39.9861 19.9935 39.8093 20.0639 39.6249 20.0639H36.2881C36.3601 20.337 36.3975 20.6176 36.3993 20.8994C36.4209 21.3779 36.3415 21.8558 36.166 22.3041C35.9904 22.7524 35.7222 23.1619 35.3776 23.5079C35.033 23.8539 34.6192 24.1292 34.161 24.3173C33.7027 24.5054 33.2097 24.6024 32.7114 24.6024C32.2132 24.6024 31.7201 24.5054 31.2619 24.3173C30.8037 24.1292 30.3898 23.8539 30.0452 23.5079C29.7006 23.1619 29.4325 22.7524 29.2569 22.3041C29.0813 21.8558 29.0019 21.3779 29.0235 20.8994C29.023 20.2766 29.1958 19.665 29.524 19.1282V7.67218ZM35.5999 9.87114C35.3566 9.4983 35.037 9.17689 34.6606 8.92642C34.2841 8.67595 33.8587 8.50164 33.4101 8.41408V12.8588H37.5394L35.5999 9.87114ZM38.9297 14.9107L38.457 14.1955H32.7149C32.5305 14.1955 32.3537 14.1251 32.2233 13.9998C32.093 13.8744 32.0197 13.7044 32.0197 13.5272V8.34056H30.9144V17.7914C31.6843 17.3733 32.5856 17.237 33.4519 17.4078C34.3181 17.5785 35.0909 18.0448 35.6277 18.7204H38.9297V14.9107ZM32.7149 23.105C33.324 23.1032 33.9074 22.8694 34.3375 22.4547C34.7675 22.04 35.009 21.4783 35.009 20.8927C35.0123 20.4839 34.8941 20.0827 34.6683 19.7364C34.4672 19.411 34.1812 19.1417 33.8386 18.9553C33.4959 18.7689 33.1086 18.6718 32.7149 18.6737C32.3352 18.6746 31.9616 18.7654 31.6271 18.9379C31.2925 19.1104 31.0071 19.3593 30.7962 19.6629C30.5667 19.9968 30.4355 20.3843 30.4164 20.7841C30.3973 21.184 30.491 21.5814 30.6877 21.9342C30.8843 22.287 31.1766 22.5821 31.5334 22.7882C31.8903 22.9943 32.2986 23.1038 32.7149 23.105Z" fill="black"/>
<path id="Vector_2" d="M32.7149 20.0639C32.8553 20.0707 32.9919 20.1101 33.1129 20.1788C33.234 20.2474 33.336 20.3434 33.41 20.4582C33.4911 20.5898 33.5343 20.7398 33.5352 20.8927C33.5158 21.0988 33.417 21.2905 33.2582 21.4301C33.0993 21.5697 32.8919 21.6471 32.6766 21.6471C32.4614 21.6471 32.2539 21.5697 32.0951 21.4301C31.9362 21.2905 31.8374 21.0988 31.8181 20.8927C31.8181 20.6729 31.9089 20.4621 32.0706 20.3067C32.2322 20.1512 32.4515 20.0639 32.6801 20.0639H32.7149Z" fill="black"/>
<path id="Vector_3" d="M15.8779 20.0639C16.0183 20.0707 16.155 20.1101 16.276 20.1788C16.3971 20.2474 16.4991 20.3434 16.5731 20.4582C16.6542 20.5898 16.6973 20.7398 16.6982 20.8927C16.6789 21.0988 16.5801 21.2905 16.4213 21.4301C16.2624 21.5697 16.0549 21.6471 15.8397 21.6471C15.6245 21.6471 15.417 21.5697 15.2582 21.4301C15.0993 21.2905 15.0005 21.0988 14.9812 20.8927C14.9812 20.6729 15.072 20.4621 15.2336 20.3067C15.3953 20.1512 15.6146 20.0639 15.8432 20.0639H15.8779Z" fill="black"/>
<path id="Vector_4" d="M7.86256 20.0639C8.00297 20.0707 8.13957 20.1101 8.26065 20.1788C8.38174 20.2474 8.48368 20.3434 8.55773 20.4582C8.63877 20.5898 8.68196 20.7398 8.68286 20.8927C8.66355 21.0988 8.56475 21.2905 8.40587 21.4301C8.247 21.5697 8.03956 21.6471 7.82432 21.6471C7.60909 21.6471 7.40165 21.5697 7.24277 21.4301C7.0839 21.2905 6.9851 21.0988 6.96579 20.8927C6.96579 20.6729 7.05661 20.4621 7.21826 20.3067C7.37992 20.1512 7.59918 20.0639 7.8278 20.0639H7.86256Z" fill="black"/>
<path id="Vector_5" d="M0.695311 4.00278H3.76797C3.95234 4.00278 4.12916 4.0732 4.25953 4.19854C4.3899 4.32389 4.46314 4.49389 4.46314 4.67116V5.5601C6.77111 2.5524 7.44543 2.5123 7.82082 2.49225C8.63619 2.37191 9.43111 2.14712 10.1844 1.82387C10.3721 1.75704 10.525 1.69688 10.6432 1.66346C11.1159 1.50974 11.8598 1.71025 13.2779 2.17143C14.0202 1.50253 14.9228 1.02038 15.9057 0.767838C17.0724 0.497473 18.2855 0.467859 19.465 0.680949C19.8785 0.746856 20.2971 0.778164 20.7163 0.774522C21.1487 0.792758 21.5717 0.901483 21.956 1.09311C22.3402 1.28474 22.6763 1.55465 22.9408 1.88403C23.2968 2.25801 23.5688 2.69851 23.7398 3.17804C23.9108 3.65757 23.9773 4.16585 23.9349 4.67116C24.1079 4.8139 24.2727 4.96562 24.4285 5.12565V4.67116C24.4285 4.49389 24.5017 4.32389 24.6321 4.19854C24.7625 4.0732 24.9393 4.00278 25.1237 4.00278H30.8241C31.0666 4.00609 31.3005 4.08951 31.4866 4.23904C31.6727 4.38857 31.7997 4.5951 31.8461 4.82397C31.8926 5.05284 31.8558 5.29011 31.7418 5.49595C31.6279 5.7018 31.4437 5.86368 31.2203 5.95444L29.0722 6.77654V15.7261C29.0722 15.9034 28.999 16.0734 28.8686 16.1987C28.7382 16.3241 28.5614 16.3945 28.3771 16.3945H20.1601L20.758 16.8891H28.4049C28.5892 16.8891 28.7661 16.9595 28.8964 17.0848C29.0268 17.2102 29.1 17.3802 29.1 17.5575V19.3621C29.1 19.5393 29.0268 19.7093 28.8964 19.8347C28.7661 19.96 28.5892 20.0305 28.4049 20.0305H22.3638C22.3108 20.0374 22.257 20.0374 22.2039 20.0305H19.465C19.6017 20.5539 19.6125 21.1004 19.4965 21.6284C19.3805 22.1565 19.1408 22.6521 18.7957 23.0777C18.4505 23.5033 18.0089 23.8475 17.5045 24.0843C17.0001 24.3211 16.4461 24.4442 15.8848 24.4442C15.3235 24.4442 14.7696 24.3211 14.2652 24.0843C13.7608 23.8475 13.3192 23.5033 12.974 23.0777C12.6288 22.6521 12.3891 22.1565 12.2731 21.6284C12.1571 21.1004 12.1679 20.5539 12.3047 20.0305H11.4427C11.5818 20.5545 11.5945 21.1021 11.4799 21.6316C11.3653 22.1611 11.1263 22.6584 10.7812 23.0855C10.4361 23.5126 9.99408 23.8583 9.48884 24.096C8.9836 24.3338 8.42852 24.4574 7.86601 24.4574C7.30349 24.4574 6.74842 24.3338 6.24318 24.096C5.73794 23.8583 5.2959 23.5126 4.95083 23.0855C4.60575 22.6584 4.36676 22.1611 4.25212 21.6316C4.13748 21.1021 4.15021 20.5545 4.28935 20.0305H3.77492C3.59055 20.0305 3.41373 19.96 3.28336 19.8347C3.15299 19.7093 3.07975 19.5393 3.07975 19.3621V16.3945H0.695311C0.510939 16.3945 0.334118 16.3241 0.203749 16.1987C0.0733795 16.0734 0.000137329 15.9034 0.000137329 15.7261V4.67116C0.000137329 4.49389 0.0733795 4.32389 0.203749 4.19854C0.334118 4.0732 0.510939 4.00278 0.695311 4.00278ZM11.0256 2.97348L10.678 3.10047C9.80791 3.45622 8.89087 3.69463 7.95291 3.80895C7.95291 3.80895 7.35506 4.02952 5.55456 6.36883H23.7611C23.4732 6.03098 23.1415 5.72999 22.774 5.47321H22.7392C22.1613 5.0942 21.4997 4.84939 20.8066 4.75805H20.6954L20.3895 4.71794L19.8612 4.67116C18.1273 4.53851 16.4043 4.29738 14.703 3.94931L14.0774 3.83569C14.0188 3.83129 13.9607 3.82235 13.9036 3.80895H13.8549L13.6881 3.76217H13.5977L13.417 3.70201L13.2779 3.66191H13.2154L12.9651 3.5817C12.3367 3.32904 11.6881 3.12564 11.0256 2.97348ZM21.912 2.7596C21.778 2.58064 21.6081 2.42929 21.4123 2.31449C21.2165 2.1997 20.9987 2.12378 20.7719 2.09122C20.2714 2.09778 19.7712 2.06199 19.2773 1.98428C18.2787 1.80979 17.2531 1.83939 16.2672 2.07117C15.8137 2.18213 15.3817 2.36268 14.988 2.60587C16.6279 2.93999 18.288 3.17438 19.9585 3.30767C20.2088 3.30767 20.4405 3.32772 20.6537 3.36782H20.7093C21.3284 3.43136 21.9361 3.57293 22.5168 3.7889C22.3893 3.41013 22.1836 3.06002 21.912 2.7596ZM22.1553 18.6937H27.6819V18.2258H20.4799C20.3142 18.2258 20.154 18.169 20.028 18.0654L18.0051 16.3945H4.46314V18.7137H4.94976C5.29258 18.2853 5.73321 17.9382 6.23763 17.6994C6.74206 17.4606 7.2968 17.3365 7.85906 17.3365C8.42132 17.3365 8.97606 17.4606 9.48048 17.6994C9.98491 17.9382 10.4255 18.2853 10.7684 18.7137H12.9651C13.3079 18.2853 13.7485 17.9382 14.253 17.6994C14.7574 17.4606 15.3121 17.3365 15.8744 17.3365C16.4366 17.3365 16.9914 17.4606 17.4958 17.6994C18.0002 17.9382 18.4409 18.2853 18.7837 18.7137H21.9954C22.0476 18.7005 22.1013 18.6938 22.1553 18.6937ZM15.8987 23.105C16.2009 23.105 16.5001 23.0478 16.7793 22.9366C17.0585 22.8254 17.3121 22.6624 17.5258 22.457C17.7395 22.2516 17.9089 22.0077 18.0246 21.7393C18.1402 21.4709 18.1997 21.1832 18.1997 20.8927C18.2034 20.4829 18.0826 20.0811 17.8522 19.7364C17.6511 19.4109 17.365 19.1417 17.0224 18.9553C16.6798 18.7689 16.2924 18.6718 15.8987 18.6736C15.3094 18.7048 14.7549 18.9518 14.3492 19.3639C13.9435 19.776 13.7174 20.3219 13.7174 20.8893C13.7174 21.4568 13.9435 22.0026 14.3492 22.4147C14.7549 22.8268 15.3094 23.0739 15.8987 23.105ZM7.88339 23.105C8.49245 23.1032 9.07594 22.8694 9.50596 22.4547C9.93599 22.0399 10.1775 21.4782 10.1775 20.8927C10.1836 20.4835 10.0652 20.0816 9.83682 19.7364C9.63353 19.4111 9.34614 19.142 9.00262 18.9551C8.6591 18.7682 8.27113 18.67 7.87644 18.67C7.48175 18.67 7.09378 18.7682 6.75026 18.9551C6.40673 19.142 6.11935 19.4111 5.91605 19.7364C5.68355 20.0805 5.56035 20.4823 5.56151 20.8927C5.56151 21.1832 5.62103 21.4709 5.73667 21.7393C5.8523 22.0077 6.0218 22.2516 6.23547 22.457C6.44913 22.6624 6.7028 22.8254 6.98197 22.9366C7.26114 23.0478 7.56036 23.105 7.86253 23.105H7.88339ZM1.41134 15.0845H3.0728V10.1986C3.0728 10.0214 3.14604 9.85136 3.27641 9.72602C3.40678 9.60067 3.5836 9.53026 3.76797 9.53026C3.95234 9.53026 4.12916 9.60067 4.25953 9.72602C4.3899 9.85136 4.46314 10.0214 4.46314 10.1986V15.0577H6.62513V10.1986C6.62513 10.0214 6.69837 9.85136 6.82874 9.72602C6.95911 9.60067 7.13593 9.53026 7.3203 9.53026C7.50467 9.53026 7.68149 9.60067 7.81186 9.72602C7.94223 9.85136 8.01547 10.0214 8.01547 10.1986V15.0577H10.1844V10.1986C10.1844 10.0214 10.2576 9.85136 10.388 9.72602C10.5184 9.60067 10.6952 9.53026 10.8796 9.53026C11.064 9.53026 11.2408 9.60067 11.3711 9.72602C11.5015 9.85136 11.5748 10.0214 11.5748 10.1986V15.0577H13.7367V10.1986C13.7367 10.0214 13.81 9.85136 13.9403 9.72602C14.0707 9.60067 14.2475 9.53026 14.4319 9.53026C14.6163 9.53026 14.7931 9.60067 14.9235 9.72602C15.0538 9.85136 15.1271 10.0214 15.1271 10.1986V15.0577H17.2891V10.1986C17.2891 10.0214 17.3623 9.85136 17.4927 9.72602C17.623 9.60067 17.7999 9.53026 17.9842 9.53026C18.1686 9.53026 18.3454 9.60067 18.4758 9.72602C18.6062 9.85136 18.6794 10.0214 18.6794 10.1986V15.0577H20.8553V10.1986C20.8553 10.0214 20.9285 9.85136 21.0589 9.72602C21.1893 9.60067 21.3661 9.53026 21.5505 9.53026C21.7348 9.53026 21.9117 9.60067 22.042 9.72602C22.1724 9.85136 22.2456 10.0214 22.2456 10.1986V15.0577H24.4007V10.1986C24.4007 10.0214 24.4739 9.85136 24.6043 9.72602C24.7347 9.60067 24.9115 9.53026 25.0958 9.53026C25.2802 9.53026 25.457 9.60067 25.5874 9.72602C25.7178 9.85136 25.791 10.0214 25.791 10.1986V15.0577H27.6819V6.32205C27.6818 6.18819 27.7234 6.05737 27.8015 5.94654C27.8796 5.83572 27.9905 5.74999 28.1198 5.70046L29.0653 5.33953H25.8397V7.05058C25.8381 7.11648 25.8264 7.1818 25.8049 7.24441V7.29788V7.3313C25.7712 7.38636 25.7316 7.43789 25.6867 7.48502C25.6373 7.5306 25.581 7.56889 25.5199 7.59865H25.4573C25.3798 7.62815 25.2974 7.64399 25.214 7.64543H3.76797C3.5836 7.64543 3.40678 7.57502 3.27641 7.44967C3.14604 7.32433 3.0728 7.15432 3.0728 6.97706V5.33953H1.39048L1.41134 15.0845Z" fill="black"/>
</g>
</svg>
