<svg width="60" height="60" viewBox="0 0 60 60" fill="none" xmlns="http://www.w3.org/2000/svg">
<g id="cancel">
<mask id="mask0_724_22962" style="mask-type:alpha" maskUnits="userSpaceOnUse" x="0" y="0" width="60" height="60">
<rect id="Bounding box" width="60" height="60" fill="#D9D9D9"/>
</mask>
<g mask="url(#mask0_724_22962)">
<path id="cancel_2" d="M21.0679 42.1667L29.9999 33.2347L38.932 42.1667L42.1666 38.9321L33.2346 30.0001L42.1666 21.068L38.932 17.8334L29.9999 26.7654L21.0679 17.8334L17.8332 21.068L26.7653 30.0001L17.8332 38.9321L21.0679 42.1667ZM30.0032 55.9892C26.4134 55.9892 23.039 55.3104 19.8799 53.9527C16.7207 52.5951 13.9649 50.7401 11.6124 48.3876C9.25993 46.0351 7.40487 43.2803 6.04724 40.1234C4.68958 36.9664 4.01074 33.593 4.01074 30.0033C4.01074 26.3858 4.68958 22.9975 6.04724 19.8384C7.40487 16.6792 9.2587 13.93 11.6087 11.5905C13.9588 9.25108 16.7129 7.39901 19.871 6.0343C23.0291 4.66964 26.4037 3.9873 29.9947 3.9873C33.6135 3.9873 37.0034 4.66903 40.1644 6.03249C43.3254 7.39595 46.0751 9.24637 48.4133 11.5837C50.7516 13.9211 52.6027 16.6696 53.9667 19.8294C55.3307 22.9892 56.0127 26.3794 56.0127 30.0001C56.0127 33.592 55.3304 36.9674 53.9657 40.1262C52.601 43.2851 50.7489 46.0398 48.4095 48.3904C46.07 50.741 43.3218 52.5951 40.1649 53.9527C37.0079 55.3104 33.6207 55.9892 30.0032 55.9892ZM29.9999 50.4801C35.7113 50.4801 40.5525 48.4925 44.5235 44.5175C48.4945 40.5424 50.48 35.7033 50.48 30.0001C50.48 24.2887 48.4945 19.4475 44.5235 15.4765C40.5525 11.5055 35.7074 9.51999 29.9882 9.51999C24.2967 9.51999 19.4625 11.5055 15.4854 15.4765C11.5084 19.4475 9.51987 24.2926 9.51987 30.0118C9.51987 35.7033 11.5074 40.5375 15.4824 44.5146C19.4575 48.4916 24.2966 50.4801 29.9999 50.4801Z" fill="#949494"/>
</g>
</g>
</svg>
